<svg width="33" height="24" viewBox="0 0 33 24" fill="none" xmlns="http://www.w3.org/2000/svg">
<path d="M31.351 4.44373C31.1837 3.76837 30.8428 3.14958 30.3628 2.64987C29.8829 2.15015 29.2809 1.7872 28.6176 1.59767C26.194 1 16.5 1 16.5 1C16.5 1 6.80596 1 4.38245 1.65459C3.71915 1.84412 3.11712 2.20707 2.63716 2.70679C2.15721 3.20651 1.81633 3.82529 1.64895 4.50065C1.20542 6.98462 0.988457 9.50445 1.00081 12.0285C0.984995 14.5715 1.20197 17.1105 1.64895 19.6132C1.83348 20.2676 2.18199 20.8628 2.66083 21.3414C3.13967 21.82 3.73264 22.1658 4.38245 22.3454C6.80596 23 16.5 23 16.5 23C16.5 23 26.194 23 28.6176 22.3454C29.2809 22.1559 29.8829 21.7929 30.3628 21.2932C30.8428 20.7935 31.1837 20.1747 31.351 19.4994C31.7912 17.0341 32.0081 14.5335 31.9992 12.0285C32.015 9.48545 31.798 6.9464 31.351 4.44373Z" stroke="white" stroke-width="2" stroke-linecap="round" stroke-linejoin="round"/>
<path d="M13.3297 16.6818L21.4316 12.0285L13.3297 7.37516V16.6818Z" stroke="white" stroke-width="2" stroke-linecap="round" stroke-linejoin="round"/>
</svg>
