<svg width="85" height="86" viewBox="0 0 85 86" fill="none" xmlns="http://www.w3.org/2000/svg">
<path d="M37.5104 78.9824C37.2979 79.8919 37.5019 80.4699 37.9184 80.7079L32.8779 77.7754C32.4699 77.5459 32.2574 76.9679 32.4699 76.0499L37.0089 56.8229C37.1279 56.3214 37.0089 55.9559 36.7709 55.8114L41.8029 58.7439C42.0494 58.8884 42.1684 59.2539 42.0494 59.7554L37.5104 78.9824Z" fill="#EE6519"/>
<path d="M37.9102 81.1924C37.8337 81.1924 37.7487 81.1754 37.6722 81.1329C37.6722 81.1329 37.6722 81.1329 37.6637 81.1329L32.6317 78.2089C31.9942 77.8519 31.7562 77.0104 32.0027 75.9564L36.5417 56.7294C36.6182 56.4234 36.5502 56.2619 36.5247 56.2364C36.2952 56.1004 36.2272 55.8114 36.3632 55.5819C36.4992 55.3524 36.7882 55.2759 37.0177 55.4119L42.0497 58.3444C42.5087 58.6079 42.6872 59.1944 42.5257 59.8829L37.9867 79.1099C37.8422 79.7049 37.9102 80.1639 38.1567 80.3084C38.3862 80.4444 38.4627 80.7334 38.3267 80.9629C38.2417 81.1159 38.0802 81.2009 37.9102 81.2009V81.1924ZM37.5022 56.7889C37.5022 56.8399 37.4852 56.8824 37.4682 56.9334L32.9292 76.1604C32.7932 76.7554 32.8612 77.2229 33.0992 77.3589L36.9412 79.5944C36.9412 79.3819 36.9752 79.1439 37.0432 78.8719L41.5822 59.6449C41.6587 59.3134 41.5822 59.1689 41.5567 59.1604L37.5022 56.7974V56.7889Z" fill="black"/>
<path d="M62.4409 35.4369C62.1434 35.2669 61.7269 35.2839 61.2339 35.5644L49.4784 42.3474C49.1894 42.5174 48.9514 42.5259 48.7729 42.4154L43.7324 39.4829C43.9109 39.5934 44.1489 39.5764 44.4464 39.4149L56.1849 32.6319C56.6779 32.3429 57.0944 32.3344 57.3919 32.5129L62.4324 35.4369H62.4409Z" fill="#EE6519"/>
<path d="M49.0451 42.9765C48.8156 42.9765 48.6456 42.9 48.5436 42.8405L43.5201 39.9165H43.5031C43.2736 39.772 43.2056 39.483 43.3331 39.2535C43.4691 39.024 43.7581 38.9475 43.9876 39.0835C43.9876 39.0835 44.0726 39.0835 44.2256 39.007L55.9556 32.2325C56.7886 31.748 57.3751 31.952 57.6471 32.1135L62.6791 35.029C62.9086 35.165 62.9851 35.454 62.8576 35.6835C62.7216 35.913 62.4326 35.9895 62.2116 35.862C62.0501 35.7685 61.7781 35.811 61.4806 35.9895L49.7251 42.7725C49.4616 42.9255 49.2321 42.9765 49.0451 42.9765ZM44.9906 39.67L49.0281 42.016C49.0281 42.016 49.1216 42.016 49.2491 41.948L61.0046 35.165L57.1626 32.938C56.9926 32.836 56.7376 32.8785 56.4401 33.057L44.9906 39.67Z" fill="black"/>
<path d="M58.5225 8.45792C59.823 7.70992 60.6475 8.83192 60.027 10.5064L48.603 41.1744C48.2375 42.1434 48.722 42.7979 49.487 42.3559L61.2255 35.5729C62.7045 34.7229 63.495 36.2784 62.509 38.1144L40.409 79.2119C40.052 79.8834 39.6015 80.3424 39.1595 80.5974C38.1055 81.2009 37.111 80.6314 37.502 78.9824L42.041 59.7554C42.245 58.9054 41.7605 58.4294 41.089 58.8119L28.798 65.9094C27.591 66.6064 26.7665 65.6884 27.2 64.1414L39.474 20.7064C39.729 19.8054 40.358 18.9384 41.0635 18.5389L58.5225 8.45792Z" fill="#EE6519"/>
<path d="M62.5177 38.1228L40.4177 79.2203C40.0522 79.8918 39.6102 80.3423 39.1682 80.6058C38.1227 81.2178 37.1197 80.6313 37.5107 78.9823L39.5762 70.2358C43.6052 63.4018 46.1212 53.7288 46.1212 43.0103C46.1212 33.6518 44.2172 25.1093 41.0552 18.5473C41.0637 18.5473 41.0637 18.5388 41.0807 18.5388L58.5397 8.45784C59.8402 7.70984 60.6647 8.84034 60.0442 10.5063L48.6287 41.1743C48.2632 42.1433 48.7477 42.7978 49.4957 42.3558L61.2512 35.5728C62.7132 34.7228 63.5122 36.2783 62.5262 38.1228H62.5177Z" fill="black"/>
<path d="M38.3777 81.3113C38.0717 81.3113 37.7827 81.2263 37.5447 81.0478C36.9922 80.6398 36.8137 79.8493 37.0432 78.8718L41.5822 59.6448C41.6587 59.3388 41.5907 59.1773 41.5652 59.1603C41.5567 59.1603 41.4802 59.1603 41.3442 59.2283L29.0532 66.3258C28.3732 66.7168 27.7017 66.7253 27.2172 66.3513C26.6392 65.9008 26.4692 65.0338 26.7582 64.0138L39.0322 20.5788C39.3212 19.5503 40.0352 18.5898 40.8427 18.1223L58.3017 8.04135C59.0072 7.63335 59.6957 7.63335 60.1802 8.04135C60.7837 8.55135 60.9112 9.55435 60.4947 10.6594L49.0707 41.3273C48.9092 41.7523 48.9942 41.9733 49.0282 42.0073C49.0452 42.0073 49.1217 42.0073 49.2577 41.9308L60.9962 35.1478C61.7272 34.7228 62.4582 34.7484 62.9342 35.2159C63.5887 35.8533 63.5887 37.1028 62.9342 38.3353L40.8342 79.4328C40.4517 80.1383 39.9587 80.6823 39.4062 81.0053C39.0577 81.2008 38.7092 81.3028 38.3777 81.3028V81.3113ZM41.5482 58.1998C41.7607 58.1998 41.9647 58.2678 42.1347 58.3953C42.5257 58.6843 42.6617 59.2368 42.5087 59.8743L37.9697 79.1013C37.8337 79.6708 37.8932 80.1213 38.1142 80.2828C38.2927 80.4103 38.5987 80.3763 38.9217 80.1893C39.3212 79.9598 39.6952 79.5348 39.9842 78.9908L62.0842 37.8933C62.5772 36.9753 62.5432 36.1848 62.2627 35.9128C62.0502 35.7003 61.6677 35.8703 61.4637 35.9893L49.7252 42.7723C49.2407 43.0528 48.7477 43.0443 48.3992 42.7468C47.9827 42.3983 47.8892 41.7269 48.1612 41.0044L59.5852 10.3364C59.8827 9.53735 59.7722 8.97635 59.5512 8.78085C59.3217 8.58535 58.9222 8.78085 58.7692 8.86585L41.3102 18.9468C40.7152 19.2868 40.1712 20.0519 39.9417 20.8338L27.6677 64.2688C27.4722 64.9658 27.5912 65.4333 27.7952 65.5863C27.9567 65.7138 28.2372 65.6798 28.5687 65.4843L40.8597 58.3868C41.0892 58.2508 41.3272 58.1828 41.5482 58.1828V58.1998Z" fill="black"/>
<path d="M34.4421 17.7739L22.1681 61.2089C21.9046 62.1354 22.1001 62.8409 22.5506 63.1044L27.5911 66.0284C27.1406 65.7649 26.9451 65.0764 27.2086 64.1414L39.4826 20.7064C39.5931 20.2899 39.7971 19.8989 40.0436 19.5419L35.0031 16.6094C34.7566 16.9664 34.5611 17.3659 34.4421 17.7739Z" fill="#EE6519"/>
<path d="M27.5908 66.5044C27.5058 66.5044 27.4293 66.4874 27.3528 66.4364L22.3123 63.5124C21.6238 63.1129 21.3943 62.1779 21.7088 61.0729L33.9828 17.6379C34.1018 17.1958 34.3143 16.7623 34.6033 16.3288C34.7478 16.1248 35.0198 16.0568 35.2408 16.1843L40.2813 19.1168C40.3918 19.1848 40.4768 19.2954 40.5108 19.4229C40.5363 19.5504 40.5108 19.6863 40.4343 19.7968C40.2048 20.1283 40.0348 20.4854 39.9413 20.8169L27.6673 64.2519C27.4633 64.9914 27.6078 65.4589 27.8288 65.5949C28.0583 65.7309 28.1348 66.0199 27.9988 66.2494C27.9138 66.4024 27.7523 66.4874 27.5823 66.4874L27.5908 66.5044ZM35.1643 17.2553C35.0538 17.4678 34.9603 17.6888 34.9008 17.9013L22.6268 61.3364C22.4143 62.0759 22.5673 62.5604 22.7883 62.6879L26.6133 64.9064C26.6133 64.6259 26.6643 64.3284 26.7493 64.0139L39.0233 20.5788C39.0998 20.2898 39.2188 20.0009 39.3803 19.7119L35.1643 17.2638V17.2553Z" fill="black"/>
<path d="M54.6974 5.4064C54.3999 5.2279 53.9834 5.2534 53.4904 5.5339L36.0314 15.6064C35.6489 15.8274 35.2919 16.1844 35.0029 16.6094L40.0434 19.5419C40.3324 19.1169 40.6894 18.7599 41.0719 18.5389L58.5309 8.4579C59.0069 8.1859 59.4404 8.1604 59.7379 8.3389L54.6974 5.4064Z" fill="#EE6519"/>
<path d="M40.0434 20.0179C39.9584 20.0179 39.8819 20.0009 39.8054 19.9499L34.7649 17.0174C34.6544 16.9494 34.5694 16.8389 34.5354 16.7114C34.5099 16.5839 34.5354 16.4479 34.6119 16.3374C34.9604 15.8359 35.3684 15.4364 35.7934 15.1899L53.2524 5.11745C54.0854 4.63295 54.6634 4.82845 54.9354 4.98995L59.9504 7.90545C59.9504 7.90545 59.9674 7.91395 59.9759 7.92245C60.2054 8.05845 60.2734 8.34745 60.1459 8.57695C60.0099 8.80645 59.7209 8.87445 59.4914 8.74695H59.4744C59.3214 8.65345 59.0579 8.69595 58.7604 8.86595L41.3014 18.9469C40.9954 19.1254 40.6979 19.4229 40.4259 19.8054C40.3324 19.9414 40.1879 20.0094 40.0349 20.0094L40.0434 20.0179ZM35.7169 16.4734L39.9159 18.9129C40.1964 18.5729 40.5109 18.3094 40.8339 18.1224L58.2844 8.04145L54.4509 5.81445C54.2979 5.72095 54.0344 5.77195 53.7369 5.95045L36.2779 16.0229C36.0909 16.1334 35.9039 16.2864 35.7254 16.4734H35.7169Z" fill="black"/>
</svg>
