<svg width="85" height="86" viewBox="0 0 85 86" fill="none" xmlns="http://www.w3.org/2000/svg">
<g clip-path="url(#clip0_1_9700)">
<path d="M34.0399 12.9399C36.2499 11.6599 39.1499 11.0199 42.0599 11.0199C44.9699 11.0199 47.8799 11.6599 50.0999 12.9399C54.3499 15.3899 54.3599 19.1999 50.1499 21.6399C45.7399 24.1999 38.5399 24.1999 34.0999 21.6399C29.8399 19.1799 29.8499 15.3799 34.0499 12.9399H34.0399Z" fill="#EE6519"/>
<path d="M71.1498 47.6498C71.1498 46.6898 70.5298 45.7998 69.4198 45.1698L52.5798 35.4498V26.6298C53.6998 25.5098 54.3198 24.2298 54.3198 22.8798V17.3198C54.3198 17.3198 54.3198 17.3198 54.3198 17.3098C54.3198 15.2998 52.9998 13.4298 50.6098 12.0498C45.8798 9.31982 38.2198 9.31982 33.5198 12.0498C31.1698 13.4198 29.8698 15.2598 29.8598 17.2498C29.8598 17.2498 29.8598 17.2598 29.8598 17.2698C29.8598 17.3798 29.8598 22.9098 29.8598 22.8098C29.8598 24.1798 30.4698 25.4698 31.6098 26.5998V35.3698L14.7498 45.1698C13.5798 45.8498 13.0498 46.8298 13.0498 47.6298L13.0098 58.7198C13.0098 59.3198 13.2498 59.8898 13.6998 60.3998C14.4298 61.2098 13.3998 60.3798 38.3598 74.8598C40.4798 76.0798 43.7998 76.0898 45.9298 74.8598L69.4098 61.2198C70.4898 60.5998 71.1098 59.6998 71.1098 58.7598L71.1498 47.6898V47.6598V47.6498ZM29.8098 49.7198C28.4998 47.5998 29.1598 45.4298 31.6098 43.5298V51.6498C30.8498 51.0498 30.2298 50.3998 29.8098 49.7198ZM46.6698 38.0898C44.1598 39.5498 40.0698 39.5498 37.5498 38.0898C35.2298 36.7498 35.2098 34.7398 37.5198 33.3998C40.0398 31.9398 44.1298 31.9498 46.6498 33.3998C48.9798 34.7398 48.9898 36.7498 46.6798 38.0898H46.6698ZM52.5898 43.5598C54.0998 44.7698 54.9198 46.2098 54.9198 47.6798C54.9198 49.1398 54.0998 50.5498 52.5898 51.7598V43.5498V43.5598ZM34.0398 12.9398C36.2498 11.6598 39.1498 11.0198 42.0598 11.0198C44.9698 11.0198 47.8798 11.6598 50.0998 12.9398C54.3498 15.3898 54.3598 19.1998 50.1498 21.6398C45.7398 24.1998 38.5398 24.1998 34.0998 21.6398C29.8398 19.1798 29.8498 15.3798 34.0498 12.9398H34.0398ZM33.5798 28.0898C35.9398 29.4498 39.0398 30.1298 42.1298 30.1298C45.2198 30.1298 48.3098 29.4498 50.6598 28.0898C50.9798 27.8998 51.2698 27.7098 51.5498 27.5098V52.5098C50.4698 53.1698 49.8698 53.3598 49.4198 53.5398V35.7698C49.4198 34.5198 48.6098 33.3698 47.1498 32.5298C44.3398 30.9098 39.7898 30.9098 36.9898 32.5298C35.5598 33.3598 34.7698 34.4898 34.7598 35.7198C34.7598 35.7398 34.7598 35.7498 34.7598 35.7598V53.4898C33.9898 53.1698 33.2798 52.7998 32.6398 52.3898V27.4898C32.9298 27.6998 33.2398 27.9098 33.5798 28.0998V28.0898ZM15.2598 46.0598L31.6098 36.5598V42.2498C28.1998 44.5598 27.2198 47.4698 28.9298 50.2598C31.4098 54.2798 37.6198 56.0398 42.3198 56.0398C47.8098 56.0398 55.9198 53.1098 55.9298 47.6898C55.9298 45.6898 54.7398 43.7898 52.5798 42.2898V36.6398L68.8998 46.0598C70.5798 47.0198 70.4398 48.3598 68.9198 49.2498C36.7398 67.9398 47.8398 61.4898 45.4398 62.8898C43.6698 63.9198 40.6398 63.8798 38.9098 62.8898L15.2798 49.2398C13.7098 48.3398 13.6498 46.9998 15.2598 46.0598ZM70.0798 58.7598C70.0798 59.3298 69.6498 59.8998 68.8898 60.3398L45.4098 73.9798C44.6598 74.4098 43.7198 74.6498 42.7498 74.7298V64.6698C43.9198 64.5998 45.0698 64.3098 45.9798 63.7898C48.3798 62.3998 37.2798 68.8398 69.4598 50.1498C69.7098 50.0098 69.9298 49.8498 70.1298 49.6798L70.0998 58.7598H70.0798Z" fill="black"/>
<path d="M38.1898 19.5598C40.3598 20.8098 43.8698 20.8098 46.0298 19.5598C48.1898 18.3098 48.1798 16.2698 46.0098 15.0198C43.8398 13.7698 40.3298 13.7698 38.1698 15.0198C36.0098 16.2698 36.0298 18.3098 38.1998 19.5598H38.1898Z" fill="black"/>
<path d="M33.5801 28.0899C35.9401 29.4499 39.0401 30.1299 42.1301 30.1299C45.2201 30.1299 48.3101 29.4499 50.6601 28.0899C50.9801 27.8999 51.2701 27.7099 51.5501 27.5099V52.5099C50.4701 53.1699 49.8701 53.3599 49.4201 53.5399V35.7699C49.4201 34.5199 48.6101 33.3699 47.1501 32.5299C44.3401 30.9099 39.7901 30.9099 36.9901 32.5299C35.5601 33.3599 34.7701 34.4899 34.7601 35.7199C34.7601 35.7399 34.7601 35.7499 34.7601 35.7599V53.4899C33.9901 53.1699 33.2801 52.7999 32.6401 52.3899V27.4899C32.9301 27.6999 33.2401 27.9099 33.5801 28.0999V28.0899Z" fill="#EE6519"/>
<path d="M15.2598 46.0599L31.6098 36.5599V42.2499C28.1998 44.5599 27.2198 47.4699 28.9298 50.2599C31.4098 54.2799 37.6198 56.0399 42.3198 56.0399C47.8098 56.0399 55.9198 53.1099 55.9298 47.6899C55.9298 45.6899 54.7398 43.7899 52.5798 42.2899V36.6399L68.8998 46.0599C70.5798 47.0199 70.4398 48.3599 68.9198 49.2499C36.7398 67.9399 47.8398 61.4899 45.4398 62.8899C43.6698 63.9199 40.6398 63.8799 38.9098 62.8899L15.2798 49.2399C13.7098 48.3399 13.6498 46.9999 15.2598 46.0599Z" fill="#EE6519"/>
</g>
<defs>
<clipPath id="clip0_1_9700">
<rect width="58.15" height="65.78" fill="white" transform="translate(13 9.99988)"/>
</clipPath>
</defs>
</svg>
