<svg width="85" height="86" viewBox="0 0 85 86" fill="none" xmlns="http://www.w3.org/2000/svg">
<path d="M42.3304 29.4316C43.0104 29.0406 43.5544 29.3636 43.5629 30.1286L43.5969 40.9916C43.5969 41.7651 43.0529 42.7001 42.3729 43.0911C41.7014 43.4736 41.1489 43.1761 41.1404 42.4026L41.1064 31.5396C41.1064 30.7661 41.6589 29.8141 42.3304 29.4231V29.4316Z" fill="black"/>
<path d="M47.2352 31.956C47.4902 31.8115 47.7367 31.7519 47.9577 31.8114C50.3207 32.4319 51.8761 34.7524 51.8761 38.3819C51.8931 44.4169 47.6602 51.7695 42.4157 54.7955C37.1627 57.83 32.8872 55.3905 32.8702 49.3555C32.8617 45.7345 34.3917 41.6375 36.7462 38.2885C36.9672 37.9825 37.2137 37.7444 37.4687 37.5999C37.8427 37.3874 38.2167 37.3704 38.4547 37.5999C38.8542 37.9994 38.7267 38.9429 38.1912 39.7334C36.4402 42.2239 35.3012 45.2584 35.3097 47.9529C35.3097 50.2054 36.1172 51.7609 37.4007 52.5004C38.6927 53.2229 40.4521 53.1209 42.4071 51.9904C44.3536 50.8684 46.1132 48.9389 47.3797 46.7374C48.6632 44.5274 49.4452 42.0455 49.4367 39.793C49.4367 37.0985 48.2807 35.3899 46.5212 34.9139C45.9772 34.7694 45.8582 33.9619 46.2577 33.1034C46.4957 32.5934 46.8612 32.1769 47.2437 31.9644L47.2352 31.956Z" fill="black"/>
<g clip-path="url(#clip0_1_9370)">
<path d="M69.2137 57.2759H67.7009C67.7009 57.2759 67.656 57.2759 67.641 57.261L44.964 44.2979C43.6085 43.5192 41.549 43.4376 40.3732 44.1125L17.5464 57.1572C17.5464 57.1572 17.5089 57.172 17.494 57.172L15.8014 57.261C15.734 57.261 15.6891 57.3204 15.6891 57.3797V58.8332C15.6516 59.3672 16.0261 59.953 16.805 60.398L40.0511 73.6875C41.4067 74.4661 43.4662 74.5477 44.642 73.8729L68.5472 60.2052C69.0415 59.9234 69.2886 59.5452 69.3261 59.1521L69.341 58.0249L69.2287 57.2759H69.2137Z" fill="black"/>
<path d="M42.635 74.9999C41.6164 74.9999 40.553 74.7552 39.7067 74.2657L16.4605 60.9763C15.6442 60.509 15.1425 59.8787 15.0376 59.1964L15.0151 59.1816V57.3869C15.0151 56.9716 15.3372 56.6305 15.7566 56.6008L17.3293 56.5192L40.0437 43.5338C41.4292 42.7403 43.7359 42.8219 45.3011 43.7192L67.8508 56.6082H69.798L70.0002 58.0321L69.9852 59.1593C69.9253 59.8416 69.5358 60.4052 68.8693 60.776L44.9641 74.4437C44.3275 74.8071 43.4962 74.9851 42.6275 74.9851L42.635 74.9999ZM16.3482 58.4919L16.3707 58.5067L16.3557 58.8849C16.3332 59.1742 16.6328 59.5301 17.1271 59.8194L40.3733 73.1088C41.5266 73.7688 43.3165 73.8504 44.2901 73.2942L68.1953 59.6265C68.3825 59.5153 68.6222 59.3373 68.6446 59.0926V58.0618L68.6297 57.9283H67.5288L67.3191 57.8319L44.6196 44.8539C43.4663 44.1939 41.6764 44.1123 40.7028 44.6685L17.7412 57.817L17.524 57.8393L16.3482 57.8986V58.4919Z" fill="black"/>
<path d="M68.5395 58.4995L44.6343 72.1672C43.4585 72.842 41.4065 72.753 40.0435 71.9818L16.7973 58.6849C15.4418 57.9062 15.292 56.7345 16.4678 56.0596L40.373 42.392C41.5488 41.7171 43.6008 41.8061 44.9638 42.5774L68.21 55.8668C69.5656 56.6455 69.7153 57.8172 68.5395 58.4921V58.4995Z" fill="white"/>
<path d="M42.6348 73.287C41.6163 73.287 40.5528 73.0423 39.7066 72.5528L16.4604 59.2634C15.5317 58.7368 15 57.9804 15 57.2017C15 56.512 15.4044 55.9039 16.1309 55.4886L40.0361 41.821C41.4216 41.0274 43.7282 41.109 45.2934 42.0064L68.5396 55.2958C69.4683 55.8223 70 56.5788 70 57.3574C70 58.0471 69.5956 58.6552 68.8691 59.0705L44.9639 72.7382C44.3273 73.1016 43.4961 73.2796 42.6273 73.2796L42.6348 73.287ZM42.3577 42.5996C41.7286 42.5996 41.137 42.7183 40.7101 42.963L16.8049 56.6381C16.6326 56.7345 16.348 56.9422 16.348 57.2017C16.348 57.4242 16.5577 57.7802 17.1344 58.1065L40.3806 71.3959C41.5339 72.0559 43.3238 72.1449 44.2974 71.5813L68.2026 57.9136C68.3749 57.8172 68.6595 57.6096 68.6595 57.35C68.6595 57.1276 68.4498 56.7716 67.8731 56.4453L44.6269 43.1558C43.9903 42.7924 43.1516 42.5996 42.3652 42.5996H42.3577Z" fill="black"/>
<path d="M43.0169 72.79H41.9834V74.3251H43.0169V72.79Z" fill="#5AC5C9"/>
<path d="M18.2576 59.4338H17.2241V60.9689H18.2576V59.4338Z" fill="#5AC5C9"/>
<path d="M21.553 61.1765H20.5195V62.7116H21.553V61.1765Z" fill="#5AC5C9"/>
<path d="M67.8357 59.2854H66.8022V60.8205H67.8357V59.2854Z" fill="#5AC5C9"/>
<path d="M59.0881 53.3083L48.9404 15.4941H36.0891L25.9039 53.4566C24.9603 56.5787 26.548 59.7676 30.5996 62.1778C37.175 66.086 47.8395 66.086 54.4149 62.1778C58.4665 59.7676 60.0168 56.4304 59.0732 53.3157L59.0881 53.3083Z" fill="#5AC5C9"/>
<path d="M42.5223 65.7597C38.0812 65.7597 33.6477 64.7585 30.2626 62.7488C26.0238 60.2274 24.2039 56.7789 25.2674 53.2712L35.5799 14.8267H49.4647L59.7397 53.1377C60.8032 56.6751 58.9459 60.2644 54.7819 62.7414C51.4043 64.7511 46.9633 65.7523 42.5298 65.7523L42.5223 65.7597ZM36.6134 16.1615L26.5705 53.6049C25.6868 56.5268 27.2894 59.4264 30.9591 61.6067C37.3323 65.3963 47.7122 65.4037 54.0854 61.6067C57.7027 59.4561 59.3278 56.4304 58.4441 53.5085L48.4237 16.1615H36.6059H36.6134Z" fill="black"/>
<path d="M47.0607 12.7947C49.5695 14.2853 49.5695 16.7029 47.0607 18.1936C44.5518 19.6842 40.4852 19.6842 37.9764 18.1936C35.4675 16.7029 35.4675 14.2853 37.9764 12.7947C40.4852 11.3041 44.5518 11.3041 47.0607 12.7947Z" fill="white"/>
<path d="M42.5225 19.9882C40.7626 19.9882 39.0026 19.5803 37.6321 18.7645C36.2092 17.9191 35.4229 16.7548 35.4229 15.4941C35.4229 14.2334 36.2092 13.0691 37.6321 12.2236C40.3732 10.5921 44.6644 10.5921 47.4129 12.2236C48.8358 13.0691 49.6222 14.2334 49.6222 15.4941C49.6222 16.7548 48.8358 17.9191 47.4129 18.7645C46.0424 19.5803 44.2825 19.9882 42.5225 19.9882ZM42.5225 12.3349C41.0022 12.3349 39.4819 12.676 38.3286 13.3657C37.3251 13.959 36.7709 14.7154 36.7709 15.4941C36.7709 16.2728 37.3251 17.0292 38.3286 17.6225C40.6428 19.0019 44.4098 18.9944 46.7239 17.6225C47.7275 17.0292 48.2816 16.2728 48.2816 15.4941C48.2816 14.7154 47.7275 13.959 46.7239 13.3657C45.5706 12.676 44.0503 12.3349 42.53 12.3349H42.5225Z" fill="black"/>
<path d="M45.3758 14.0924C43.7881 13.3582 41.2194 13.3582 39.6317 14.0924C38.044 14.8266 38.044 16.0131 39.6317 16.7473C41.2194 17.4815 43.7881 17.4815 45.3758 16.7473C46.9635 16.0131 46.9635 14.8266 45.3758 14.0924Z" fill="#5AC5C9"/>
<path d="M42.5002 17.9635C41.3619 17.9635 40.231 17.7559 39.3473 17.348C37.9768 16.7177 37.7671 15.8648 37.7671 15.4199C37.7671 14.9749 37.9693 14.1221 39.3473 13.4917C41.1147 12.6759 43.8932 12.6759 45.6606 13.4917C47.0311 14.1221 47.2408 14.9675 47.2408 15.4199C47.2408 15.8722 47.0386 16.7177 45.6606 17.348C44.7769 17.7559 43.6385 17.9635 42.5077 17.9635H42.5002ZM42.5002 14.2111C41.5566 14.2111 40.6129 14.3742 39.909 14.6931C39.3548 14.9527 39.1076 15.2419 39.1076 15.4124C39.1076 15.583 39.3548 15.8797 39.909 16.1392C41.3094 16.7844 43.6835 16.7844 45.0839 16.1392C45.6381 15.8797 45.8853 15.5904 45.8853 15.4124C45.8853 15.2345 45.6381 14.9452 45.0839 14.6931C44.38 14.3668 43.4363 14.2111 42.4927 14.2111H42.5002Z" fill="black"/>
<path d="M53.5465 32.6325L51.4046 24.6677C51.7566 26.2547 50.9103 27.9159 48.8583 29.1322C45.3609 31.2086 39.6917 31.2086 36.1943 29.1322C34.1422 27.9159 33.3035 26.2547 33.6554 24.6677L31.4536 32.944C30.8545 35.013 31.8955 37.223 34.5841 38.8174C38.9877 41.4353 46.1248 41.4353 50.5209 38.8174C53.3443 37.1414 54.3029 34.835 53.5465 32.6325Z" fill="white"/>
<path d="M42.545 41.4279C39.5344 41.4279 36.5238 40.7456 34.2246 39.3811C31.3713 37.6828 30.0907 35.2059 30.7946 32.7512L33.1163 23.9929H34.4718L34.2995 24.8013C34 26.1658 34.8088 27.5303 36.5238 28.5538C39.8265 30.5116 45.1962 30.519 48.4989 28.5538C50.2139 27.5303 51.0302 26.1658 50.7231 24.8013L50.5434 23.9929H51.8914L54.1756 32.4323C55.0593 35.0205 53.8161 37.6161 50.8505 39.3811C48.5588 40.7456 45.5482 41.4279 42.5375 41.4279H42.545ZM33.5656 27.5748L32.0977 33.1072C31.551 34.9908 32.5845 36.8522 34.9211 38.2465C39.1225 40.7456 45.9676 40.7456 50.1689 38.2465C52.5954 36.8078 53.5915 34.8351 52.91 32.8476L51.487 27.5674C50.9853 28.3684 50.2139 29.1025 49.2029 29.7032C45.5182 31.8909 39.5269 31.8909 35.8423 29.7032C34.8313 29.1025 34.0674 28.3758 33.5656 27.5748Z" fill="black"/>
<path d="M58.025 49.3851C58.025 49.3851 57.9127 48.9254 57.9052 48.9031L55.9131 41.6206C56.3849 43.9789 55.0968 46.4336 52.0487 48.2431C46.7689 51.38 38.2164 51.38 32.944 48.2431C29.9035 46.4336 28.6228 43.9789 29.0946 41.6206L27.0276 49.3851C26.3611 52.181 27.8439 55.1251 31.4612 57.2758C37.5798 60.9096 47.4954 60.9096 53.6065 57.2758C57.2237 55.1251 58.6841 52.181 58.025 49.3851Z" fill="white"/>
<path d="M42.5374 60.65C38.4034 60.65 34.2694 59.7156 31.1165 57.8467C27.7239 55.8296 25.9565 52.9596 26.256 50.0525H26.1812L28.5702 40.9531H29.9032L29.7535 41.7466C29.3191 43.9195 30.6147 46.0776 33.2958 47.672C38.3734 50.6903 46.6339 50.6903 51.7115 47.672C54.3926 46.0776 55.6807 43.9195 55.2539 41.7466L55.0966 40.9531H56.4297L58.931 50.0525H58.8337C59.1332 52.9596 57.3658 55.8296 53.9732 57.8467C50.8203 59.7156 46.6863 60.65 42.5523 60.65H42.5374ZM27.7763 49.1849L27.7014 49.5334C27.0798 52.1661 28.5777 54.7765 31.8055 56.6973C37.7219 60.2125 47.3454 60.2125 53.2618 56.6973C56.4971 54.7765 57.9949 52.1587 57.3658 49.5334L56.1301 44.98C55.4636 46.4187 54.1979 47.7388 52.393 48.8141C46.9335 52.0623 38.0514 52.0623 32.5918 48.8141C30.8019 47.7462 29.5363 46.441 28.8697 45.0171L27.7688 49.1849H27.7763Z" fill="black"/>
<path d="M39.7215 14.1073C38.2237 14.797 38.2237 15.9168 39.7215 16.6139C40.0585 16.7696 40.4405 16.8809 40.8449 16.9699L41.2493 13.6846C40.6951 13.7661 40.1634 13.9071 39.7215 14.1073Z" fill="black"/>
<path d="M41.4214 17.7634L40.7025 17.6151C40.2157 17.5113 39.7888 17.3778 39.4293 17.2146C38.1112 16.6065 37.9165 15.7908 37.9165 15.3606C37.9165 14.9305 38.1112 14.1148 39.4293 13.5066C39.9011 13.2916 40.4778 13.1284 41.1443 13.0246L42.0205 12.8911L41.4214 17.7634ZM40.4703 14.5375C40.298 14.5894 40.1483 14.6487 40.006 14.7154C39.4218 14.9824 39.272 15.2494 39.272 15.3681C39.272 15.4867 39.4293 15.7463 40.006 16.0132C40.0883 16.0503 40.1782 16.0874 40.2756 16.1245L40.4703 14.5449V14.5375Z" fill="black"/>
<path d="M48.1895 21.773L46.8813 22.0632L49.3262 32.8674L50.6343 32.5771L48.1895 21.773Z" fill="black"/>
</g>
<defs>
<clipPath id="clip0_1_9370">
<rect width="55" height="64" fill="white" transform="translate(15 11)"/>
</clipPath>
</defs>
</svg>
