<svg width="85" height="86" viewBox="0 0 85 86" fill="none" xmlns="http://www.w3.org/2000/svg">
<g clip-path="url(#clip0_1_9596)">
<path d="M71.2902 37.1301L66.7786 34.5533V34.4455L66.6703 29.6156C66.6703 29.28 66.7786 28.8246 67.0072 28.489L70.6165 22.089C71.0617 21.1902 71.182 20.2913 70.9534 19.6202L69.6059 16.7078C69.4976 16.4801 69.269 16.2644 69.1608 16.1445L63.1934 12.6689C62.9648 12.561 62.3993 12.3333 61.509 12.7768L57.8997 15.018V11.9858C57.8997 11.4225 57.6712 10.979 57.4546 10.7513C57.3463 10.6435 55.4214 9.51688 51.2586 7.15586C51.03 7.048 50.6932 6.92815 50.4646 7.048L47.1922 7.38357C46.2898 7.49144 45.6161 8.28244 45.1589 8.95359L41.1045 16.1325C40.8759 16.576 40.539 16.9235 40.3104 17.0314C35.6905 19.6082 35.9191 19.6082 35.6905 19.6082L31.973 17.4749C31.1789 17.0314 30.3969 17.4749 29.7232 18.146L26.4507 21.5138C25.777 22.1849 25.3198 23.1917 25.4401 23.9827C25.4401 30.4905 25.777 30.6103 25.2115 31.617C22.3963 36.4469 22.3963 37.3458 21.494 37.7893L16.2003 40.7016C15.4063 41.145 14.7325 41.936 14.516 42.8349L13.1685 47.545C12.8316 48.5517 13.0602 49.4506 13.734 49.7861L18.1253 52.255L18.2336 57.3007C18.2336 57.6362 18.1253 58.0917 17.8967 58.4272L14.2874 64.5995C13.7219 65.4983 13.6137 66.3972 13.9505 67.0684L15.298 70.2084C15.4063 70.4361 15.6349 70.6518 15.8634 70.8796L21.9511 74.3552C22.5166 74.6907 23.082 74.463 23.6355 74.2473L27.2448 72.0061V74.9185C27.2448 75.5896 27.4734 76.045 27.9185 76.3806C34.0062 79.8562 33.6693 79.7484 34.0062 79.8562C34.2348 79.9641 34.4513 79.9641 34.6799 79.9641L38.1689 79.6285C39.0712 79.5207 39.8533 78.7297 40.2022 77.9506L43.9197 70.9874C44.1483 70.6518 44.3649 70.3163 44.7138 70.0885L49.3337 67.1762C49.5623 67.0684 49.6705 67.0684 49.7788 67.0684L53.4964 69.2017C54.2904 69.6451 55.1807 69.2017 55.7462 68.5305L58.8983 65.1628C59.5721 64.4916 59.9089 63.4849 59.9089 62.6939L59.6803 56.2939C59.6803 55.9584 59.7886 55.6228 60.0172 55.1674L62.9407 49.6663C63.1693 49.2228 63.5062 48.8753 63.8431 48.7674L69.1367 45.8551C69.8104 45.4116 70.4842 44.6206 70.7128 43.7218L71.9519 39.1196C72.0602 38.3286 71.8437 37.5496 71.2782 37.0941L71.2902 37.1301Z" fill="#EE6519"/>
<path d="M70.7247 39.0357L69.4855 43.6379C69.2569 44.2011 68.92 44.8723 68.3546 45.1L63.0609 48.0123C62.4955 48.3479 62.0503 48.8033 61.8218 49.3546L58.8982 54.8557C58.5614 55.419 58.4531 55.9823 58.4531 56.5336L58.6817 62.9335C58.6817 63.4968 58.4531 64.168 58.0079 64.6114L54.8558 67.9792C54.6272 68.2069 54.1821 68.5425 53.9535 68.4226L50.2359 66.2893C49.7908 66.0616 49.2253 66.0616 48.6598 66.3972L44.0399 69.3095C43.5948 69.5372 43.1376 70.1005 42.8007 70.6518L39.0832 77.3873C38.8546 77.8308 38.4094 78.3941 37.9523 78.3941L34.4633 78.7296C34.2347 78.7296 34.2347 78.5019 34.2347 78.2862V72.5574C34.2347 71.8863 33.8978 71.323 33.5609 71.0952C32.43 70.532 30.072 69.2975 30.1802 69.4174C29.7351 69.1897 29.1696 69.3095 28.6042 69.5252L22.8534 73.1207C22.6248 73.2286 22.2879 73.3484 22.2879 73.1207C22.2879 73.0128 20.8201 69.8608 20.9404 69.9807C20.8322 69.7529 20.9404 69.0818 21.2773 68.5185C21.3856 68.4106 24.8866 62.4541 24.9949 62.1186C25.2235 61.5553 25.3317 61.1118 25.3317 60.6564C25.3317 60.5485 25.1032 55.1553 25.2235 55.4909C25.2235 54.8198 24.8866 54.3643 24.4294 54.1486L20.2547 52.1232C20.0261 52.0153 20.1464 51.5599 20.1464 51.3322C20.2547 51.1044 21.6142 46.3944 21.6142 46.5022C21.8428 45.939 22.1796 45.3757 22.6248 45.0401C22.733 44.9322 28.2553 41.9 27.9184 42.1278C28.3636 41.9 28.8207 41.3368 29.1576 40.7854L31.9729 35.5121C32.3097 34.9488 32.418 34.2776 32.418 33.9421L32.3097 27.3144C32.3097 26.7511 32.6466 26.08 33.1038 25.6365C35.8107 23.0598 36.3762 22.0411 37.0499 21.8253C37.1582 21.9332 40.9961 24.0665 40.7675 23.9587C41.2127 24.2942 41.8984 24.1864 42.3436 23.8508C42.6804 23.6231 47.0718 21.1542 47.6372 20.5909C48.0824 20.1475 48.0824 19.9197 48.5395 19.2486L52.1488 12.8487C52.3774 12.4052 52.8226 11.8419 53.2797 11.8419L56.5522 11.5063C56.7808 11.5063 56.7808 11.7341 56.7808 11.9498V18.0141C56.7808 18.6853 57.1176 19.2486 57.5748 19.4763L60.7269 20.9385C61.1721 21.0463 61.521 21.274 62.303 20.8306C62.4113 20.7227 68.3907 17.0194 68.0538 17.2351C68.2824 17.1273 68.499 17.0074 68.6193 17.2351L69.8585 20.0396C69.9667 20.2673 69.9667 20.8306 69.6299 21.5018L66.0206 27.9017C65.6837 28.465 65.5754 29.1361 65.5754 29.5796L65.6837 34.4095C65.6837 35.0806 66.0206 35.5361 66.4777 35.7518L70.6525 37.8851C70.7608 38.1128 70.8811 38.4484 70.7608 39.0117L70.7247 39.0357Z" fill="white"/>
<path d="M58.2243 29.939C58.2243 29.8671 58.2243 29.8671 58.2243 29.939C57.5506 29.4956 53.0389 26.9068 53.1592 27.0267C51.126 25.7922 48.4311 25.7922 45.6158 27.0267C37.9521 30.1667 31.4192 40.8333 31.4192 49.3665C31.4192 52.5065 32.3216 55.0953 34.0059 56.6653L29.386 63.8443C29.1574 64.1798 28.9409 64.9708 29.4943 66.0854C30.2883 67.6555 32.3095 69.4532 34.1142 69.5611C35.0165 69.6689 35.7985 69.2255 36.364 68.4345L41.0922 60.9199C43.9074 62.0465 46.9513 61.1477 49.6582 59.6855C56.5279 55.7545 62.1705 46.1066 62.1705 38.1367C62.0622 34.3255 60.7027 31.2933 58.2243 29.939Z" fill="#EE6519"/>
<path d="M71.2902 37.1301L66.7786 34.5533V34.4455L66.6703 29.6156C66.6703 29.28 66.7786 28.8246 67.0072 28.489L70.6165 22.089C71.0617 21.1902 71.182 20.2913 70.9534 19.6202L69.6059 16.7078C69.4976 16.4801 69.269 16.2644 69.1608 16.1445L63.1934 12.6689C62.9648 12.561 62.3993 12.3333 61.509 12.7768L57.8997 15.018V11.9858C57.8997 11.4225 57.6712 10.979 57.4546 10.7513C57.3463 10.6435 55.4214 9.51688 51.2586 7.15586C51.03 7.048 50.6932 6.92815 50.4646 7.048L47.1922 7.38357C46.2898 7.49144 45.6161 8.28244 45.1589 8.95359L41.1045 16.1325C40.8759 16.576 40.539 16.9235 40.3104 17.0314C35.6905 19.6082 35.9191 19.6082 35.6905 19.6082L31.973 17.4749C31.1789 17.0314 30.3969 17.4749 29.7232 18.146L26.4507 21.5138C25.777 22.1849 25.3198 23.1917 25.4401 23.9827C25.4401 30.4905 25.777 30.6103 25.2115 31.617C22.3963 36.4469 22.3963 37.3458 21.494 37.7893L16.2003 40.7016C15.4063 41.145 14.7325 41.936 14.516 42.8349L13.1685 47.545C12.8316 48.5517 13.0602 49.4506 13.734 49.7861L18.1253 52.255L18.2336 57.3007C18.2336 57.6362 18.1253 58.0917 17.8967 58.4272L14.2874 64.5995C13.7219 65.4983 13.6137 66.3972 13.9505 67.0684L15.298 70.2084C15.4063 70.4361 15.6349 70.6518 15.8634 70.8796L21.9511 74.3552C22.5166 74.6907 23.082 74.463 23.6355 74.2473L27.2448 72.0061V74.9185C27.2448 75.5896 27.4734 76.045 27.9185 76.3806C34.0062 79.8562 33.6693 79.7484 34.0062 79.8562C34.2348 79.9641 34.4513 79.9641 34.6799 79.9641L38.1689 79.6285C39.0712 79.5207 39.8533 78.7297 40.2022 77.9506L43.9197 70.9874C44.1483 70.6518 44.3649 70.3163 44.7138 70.0885L49.3337 67.1762C49.5623 67.0684 49.6705 67.0684 49.7788 67.0684L53.4964 69.2017C54.2904 69.6451 55.1807 69.2017 55.7462 68.5305L58.8983 65.1628C59.5721 64.4916 59.9089 63.4849 59.9089 62.6939L59.6803 56.2939C59.6803 55.9584 59.7886 55.6228 60.0172 55.1674L62.9407 49.6663C63.1693 49.2228 63.5062 48.8753 63.8431 48.7674L69.1367 45.8551C69.8104 45.4116 70.4842 44.6206 70.7128 43.7218L71.9519 39.1196C72.0602 38.3286 71.8437 37.5496 71.2782 37.0941L71.2902 37.1301ZM62.0504 13.7835C62.3873 13.5558 62.4956 13.6756 62.6159 13.6756L67.3441 16.3722C67.2358 16.4801 61.3767 20.0756 61.7136 19.8479C61.6053 19.9557 61.3767 19.9557 61.2684 19.9557C61.1601 19.9557 57.7794 18.3857 57.8877 18.3857C57.7794 18.3857 57.7794 18.158 57.7794 17.9423V16.2644L62.0625 13.7955L62.0504 13.7835ZM45.7123 9.96033L50.7774 12.8727L47.505 18.7093C46.9395 19.6082 46.9395 19.8359 46.4944 20.2793L41.5376 17.367C41.7662 17.1393 41.9827 16.9235 42.103 16.576L45.7123 9.94834V9.96033ZM40.539 18.158C40.8759 18.3857 45.7244 21.1902 45.3875 20.9625C45.2792 21.0703 41.5617 23.2036 41.7782 22.9879C41.3331 23.2156 41.2128 22.9879 41.2128 22.9879C41.1045 22.88 36.3643 20.0756 36.7011 20.1834L40.527 18.158H40.539ZM31.2992 27.8058L31.4075 34.0859C31.4075 34.3136 31.4075 34.0859 31.2992 34.6492C31.1909 34.5413 25.8853 31.5092 26.2342 31.7369C26.571 30.7301 26.3424 30.5024 26.3424 25.0014L31.2992 27.8058ZM25.777 32.6357C28.7005 34.3136 30.9623 35.6679 30.842 35.5481L28.4719 39.8147L23.4069 36.9024L25.777 32.6357ZM30.3969 18.949C30.6255 18.7213 31.0706 18.3857 31.2992 18.5056L36.0274 21.31C35.6905 21.5377 35.4619 21.7535 32.3098 25.0134C31.973 25.4568 31.5158 26.1399 31.4075 26.5834L26.4507 23.671C26.6793 22.4366 27.6899 21.8733 30.3969 18.961V18.949ZM21.9391 38.808C22.276 38.5803 22.6128 38.2447 22.9497 37.9091L28.0148 40.8214C27.7862 41.0491 27.6779 41.157 27.4493 41.2649C27.341 41.3727 22.1557 44.1772 22.4925 44.0693L17.644 41.2649L21.9271 38.796L21.9391 38.808ZM14.1671 47.9045L15.5145 43.1944C15.6228 42.751 15.9597 42.2956 16.3086 41.96L21.2654 44.8723C20.9285 45.2079 20.5916 45.7712 20.363 46.3345C20.363 46.4423 18.8953 51.2723 19.0156 51.0445C19.0156 51.2723 18.9073 51.3801 18.9073 51.6078L14.2874 48.8034C14.1791 48.8034 14.0588 48.4678 14.1791 47.9045H14.1671ZM23.8641 55.3112C23.9723 55.3112 23.9723 55.5389 23.9723 55.7546C23.9723 55.8625 24.0806 58.8947 24.0806 59.9134C23.9723 59.8055 19.0156 57.001 19.2321 57.1089L19.1238 53.07C20.4713 53.7411 19.7976 53.2977 23.852 55.3112H23.8641ZM18.787 59.1224C18.8953 58.7868 19.1238 58.5591 19.1238 58.2235C19.2321 58.3314 24.4175 61.2557 24.0806 61.1358C24.0806 61.4714 23.9723 61.807 23.7437 62.0347C23.6355 62.1426 20.2548 67.9792 20.4713 67.5358C20.0262 67.3081 15.1777 64.5036 15.4063 64.6234L18.787 59.1224ZM28.1351 74.8346V71.2391L29.1457 70.5679C29.3743 70.4601 29.4825 70.4601 29.5908 70.4601L32.8632 72.138C32.8632 72.138 32.9715 72.3657 32.9715 72.5814V77.9746L28.2433 75.1701C28.2433 75.1701 28.1351 75.0623 28.1351 74.8346ZM70.7248 39.0357L69.4856 43.6379C69.257 44.2012 68.9201 44.8723 68.3547 45.1L63.061 48.0124C62.4956 48.3479 62.0504 48.8034 61.8219 49.3547L58.8983 54.8557C58.5615 55.419 58.4532 55.9823 58.4532 56.5336L58.6818 62.9336C58.6818 63.4969 58.4532 64.168 58.008 64.6115L54.8559 67.9792C54.6273 68.2069 54.1822 68.5425 53.9536 68.4226L50.236 66.2893C49.7909 66.0616 49.2254 66.0616 48.6599 66.3972L44.04 69.3095C43.5949 69.5372 43.1377 70.1005 42.8008 70.6518L39.0833 77.3873C38.8547 77.8308 38.4095 78.3941 37.9524 78.3941L34.4634 78.7297C34.2348 78.7297 34.2348 78.5019 34.2348 78.2862V72.5574C34.2348 71.8863 33.8979 71.323 33.561 71.0953C32.4301 70.532 30.0721 69.2975 30.1803 69.4174C29.7352 69.1897 29.1697 69.3095 28.6043 69.5253L22.8535 73.1207C22.6249 73.2286 22.288 73.3484 22.288 73.1207C22.288 73.0129 20.8202 69.8608 20.9405 69.9807C20.8322 69.753 20.9405 69.0818 21.2774 68.5185C21.3857 68.4107 24.8867 62.4542 24.995 62.1186C25.2236 61.5553 25.3318 61.1119 25.3318 60.6564C25.3318 60.5486 25.1033 55.1554 25.2236 55.4909C25.2236 54.8198 24.8867 54.3644 24.4295 54.1486L20.2548 52.1232C20.0262 52.0153 20.1465 51.5599 20.1465 51.3322C20.2548 51.1045 21.6143 46.3944 21.6143 46.5023C21.8429 45.939 22.1797 45.3757 22.6249 45.0401C22.7331 44.9323 28.2554 41.9001 27.9185 42.1278C28.3637 41.9001 28.8208 41.3368 29.1577 40.7855L31.973 35.5121C32.3098 34.9488 32.4181 34.2777 32.4181 33.9421L32.3098 27.3145C32.3098 26.7512 32.6467 26.08 33.1039 25.6366C35.8108 23.0598 36.3763 22.0411 37.05 21.8254C37.1583 21.9332 40.9962 24.0665 40.7676 23.9587C41.2128 24.2943 41.8985 24.1864 42.3437 23.8508C42.6805 23.6231 47.0719 21.1542 47.6373 20.5909C48.0825 20.1475 48.0825 19.9198 48.5396 19.2486L52.1489 12.8487C52.3775 12.4052 52.8227 11.842 53.2798 11.842L56.5523 11.5064C56.7809 11.5064 56.7809 11.7341 56.7809 11.9498V18.0142C56.7809 18.6853 57.1177 19.2486 57.5749 19.4763L60.727 20.9385C61.1722 21.0464 61.5211 21.2741 62.3031 20.8306C62.4114 20.7228 68.3908 17.0194 68.0539 17.2352C68.2825 17.1273 68.4991 17.0074 68.6194 17.2352L69.8586 20.0396C69.9668 20.2673 69.9668 20.8306 69.63 21.5018L66.0207 27.9017C65.6838 28.465 65.5755 29.1362 65.5755 29.5796L65.6838 34.4095C65.6838 35.0807 66.0207 35.5361 66.4778 35.7518L70.6526 37.8851C70.7609 38.1128 70.8812 38.4484 70.7609 39.0117L70.7248 39.0357Z" fill="black"/>
<path d="M58.2248 29.9392C58.2248 29.8673 58.2248 29.8673 58.2248 29.9392C57.551 29.4958 53.0394 26.9071 53.1597 27.0269C51.1265 25.7925 48.4316 25.7925 45.6163 27.0269C37.9526 30.1669 31.4197 40.8335 31.4197 49.3668C31.4197 52.5068 32.322 55.0955 34.0064 56.6656L29.3865 63.8445C29.1579 64.1801 28.9413 64.9711 29.4948 66.0857C30.2888 67.6557 32.31 69.4534 34.1147 69.5613C35.017 69.6692 35.799 69.2257 36.3645 68.4347L41.0926 60.9202C43.9079 62.0468 46.9517 61.1479 49.6587 59.6857C56.5284 55.7547 62.1709 46.1069 62.1709 38.1369C62.0627 34.3257 60.7032 31.2935 58.2248 29.9392ZM32.5386 49.3548C32.5386 41.1571 38.8429 31.1737 45.7246 28.1415L49.5504 30.3827C42.5604 33.8583 36.3645 43.9616 36.3645 52.2671C36.3645 54.5083 36.9299 56.5337 37.6037 57.7682L35.799 56.6416C33.7658 55.4071 32.5266 52.8304 32.5266 49.3428L32.5386 49.3548ZM35.3539 67.7636C35.017 68.207 34.6801 68.4347 34.1147 68.4347C32.7672 68.3269 31.0708 66.8647 30.5054 65.6303C30.2768 65.1868 30.1685 64.7314 30.3971 64.5037L34.9087 57.4326C35.7028 57.9959 37.0502 58.7749 40.0941 60.4648L35.3659 67.7636H35.3539ZM49.0933 58.679C45.9411 60.4767 43.1259 60.8123 40.9844 59.5779C38.8428 58.3434 37.7119 55.7667 37.7119 52.2791C37.7119 44.7646 43.0056 35.5602 49.6587 31.737C55.963 28.1415 61.04 30.8381 61.04 38.2448C60.9318 45.7593 55.6261 54.9637 49.0933 58.667V58.679Z" fill="black"/>
<path d="M44.9305 44.3091C44.7019 44.3091 44.4854 44.5368 44.4854 44.7525V50.5892C44.4854 50.8169 44.7139 51.0326 44.9305 51.0326C45.1471 51.0326 45.3756 50.8049 45.3756 50.5892V44.7525C45.3756 44.5248 45.1471 44.3091 44.9305 44.3091Z" fill="black"/>
<path d="M49.3216 41.8401C49.093 41.8401 48.8765 42.0678 48.8765 42.2835V48.1202C48.8765 48.3479 49.1051 48.5636 49.3216 48.5636C49.5382 48.5636 49.7668 48.3359 49.7668 48.1202V42.2835C49.6585 42.0558 49.5382 41.8401 49.3216 41.8401Z" fill="black"/>
<path d="M53.6048 39.3713C53.3762 39.3713 53.1597 39.599 53.1597 39.8148V45.6514C53.1597 45.8791 53.3883 46.0949 53.6048 46.0949C53.8214 46.0949 54.05 45.8672 54.05 45.6514V39.8148C54.05 39.4792 53.8214 39.3713 53.6048 39.3713Z" fill="black"/>
</g>
<defs>
<clipPath id="clip0_1_9596">
<rect width="59" height="73" fill="white" transform="translate(13 7)"/>
</clipPath>
</defs>
</svg>
