<svg width="78" height="69" viewBox="0 0 78 69" fill="none" xmlns="http://www.w3.org/2000/svg">
<g clip-path="url(#clip0_1_7704)">
<path d="M75.636 20.817L62.0351 13.0584C61.6974 12.8375 61.272 12.7571 60.779 12.8642L49.805 15.2742L40.4113 9.83844C40.2425 9.69787 40.0534 9.59076 39.8441 9.51043C39.108 9.22927 38.1693 9.35646 37.1833 9.92547L28.0057 15.1804C26.7158 15.9168 25.5138 17.3561 24.8182 18.9895C22.1777 25.1682 20.7798 31.4073 20.7798 36.9635V57.7223C20.7798 58.6997 21.158 59.3423 21.7455 59.6101L35.3937 67.4088L41.789 61.2301L50.1697 44.1799L59.9348 38.5902C61.5151 37.6865 62.805 35.4707 62.805 33.6632V36.8764L66.5327 29.3053L71.915 27.7455L75.7373 21.1852C75.8116 21.058 75.7643 20.8906 75.636 20.8103V20.817Z" fill="#5AC5C9"/>
<path d="M39.027 10.22C38.6083 10.22 38.1221 10.3673 37.6088 10.6618L28.4312 15.9168C27.3102 16.5595 26.2297 17.8648 25.6016 19.3175C23.0017 25.4025 21.6308 31.501 21.6308 36.9568V57.7156C21.6308 58.2913 21.7996 58.6997 22.09 58.8268L35.2452 66.3445L41.0732 60.7213L49.5012 43.564L59.496 37.8471C60.8196 37.0907 61.9339 35.1761 61.9339 33.6632H63.4128L65.9047 28.589L71.3208 27.0159L74.6772 21.2588L61.5827 13.7881C61.3801 13.6609 61.191 13.6274 60.9479 13.6876L49.643 16.1712L39.8374 10.4878C39.7428 10.4075 39.6348 10.3539 39.5132 10.3004C39.3579 10.2468 39.1958 10.2133 39.0067 10.2133H39.027V10.22ZM35.5221 68.4799L21.3066 60.3598C20.4489 59.9716 19.9087 59.0009 19.9087 57.7357V36.9769C19.9087 31.2935 21.3269 24.9607 24.0146 18.6681C24.7845 16.854 26.1149 15.2809 27.5668 14.4508L36.7444 9.19581C37.9397 8.513 39.1486 8.34564 40.1413 8.72721C40.4182 8.83432 40.668 8.9682 40.8909 9.14895L49.9469 14.3838L60.59 12.0476C61.2991 11.8869 61.9609 12.0007 62.5079 12.3622L76.0616 20.094C76.3249 20.2413 76.514 20.4823 76.5951 20.7768C76.6761 21.0647 76.6356 21.3726 76.4803 21.6337L72.4824 28.4886L67.1338 30.0349L61.9406 40.5984V37.9944C61.4747 38.5433 60.9411 39.0186 60.3604 39.3399L50.8181 44.7957L42.3766 61.8459L35.5086 68.4732V68.4866L35.5221 68.4799Z" fill="black"/>
<path d="M75.7373 21.1249C75.8116 20.9977 75.7644 20.8304 75.636 20.7501L62.0351 12.9914C61.6974 12.7705 61.272 12.6902 60.779 12.7973L49.8051 15.2072L40.4113 9.77152C40.2425 9.63094 40.0534 9.52383 39.8441 9.4435C39.108 9.16234 38.1693 9.28954 37.1833 9.85854L28.0057 15.1135C27.3101 15.5085 26.6618 16.111 26.0811 16.8339L62.8725 36.6957L66.526 29.2584L71.9083 27.6987L75.7306 21.1383L75.7373 21.1249Z" fill="white"/>
<path d="M27.4519 16.5996L62.4943 35.5108L65.9249 28.5354L71.341 26.9623L74.6973 21.1986L61.6029 13.7278C61.4003 13.6006 61.2112 13.5671 60.9613 13.6274L49.6565 16.1109L39.8508 10.4208C39.7563 10.3405 39.655 10.287 39.5334 10.2401C39.0269 10.046 38.3448 10.1732 37.6088 10.5949L28.4311 15.8499C28.107 16.0373 27.7761 16.2917 27.4452 16.5996H27.4519ZM63.2507 37.8672L24.7642 17.095L25.399 16.2984C26.0608 15.4683 26.8104 14.8056 27.5667 14.3771L36.7443 9.12217C37.9397 8.43936 39.1417 8.272 40.1412 8.65357C40.4113 8.75399 40.6612 8.89457 40.8908 9.07531L49.9469 14.3102L60.5899 11.9739C61.299 11.8199 61.9608 11.9271 62.5146 12.2952L76.0682 20.0204C76.6152 20.335 76.7976 21.0245 76.4869 21.56L72.489 28.4149L67.1405 29.9613L63.2574 37.8605L63.2507 37.8672Z" fill="black"/>
<path d="M68.0253 11.4852L62.8389 8.76737C58.2062 6.49133 52.1756 7.2277 45.8613 10.8493L44.1865 11.8065L45.814 13.6876L45.8681 13.6542L51.3652 16.5193L52.8914 14.3437L58.1184 12.8509L62.069 12.891C62.1838 13.219 62.2648 13.5872 62.2648 14.0156V15.4951L67.5661 18.2598C67.6674 18.3133 67.7957 18.2598 67.8227 18.1393L68.6669 14.5244L68.0253 11.4785V11.4852Z" fill="#5AC5C9"/>
<path d="M63.1225 14.9863L67.1811 17.095L67.7889 14.511L67.2757 12.0409L62.4539 9.51043C58.1116 7.37497 52.3714 8.11134 46.3138 11.5723L45.5371 12.0208L46.2867 12.891L51.1153 15.408L52.3849 13.6073L58.0306 11.994L62.7038 12.0409L62.9064 12.6099C63.0685 13.0718 63.1495 13.527 63.1495 14.009V14.9729H63.136L63.1225 14.9863ZM67.6404 19.1367C67.4715 19.1367 67.3095 19.0966 67.1541 19.0162L61.4004 16.0172V14.0223C61.4004 13.9286 61.4004 13.8416 61.3802 13.7479L58.2332 13.7211L53.4181 15.0934L51.6285 17.6372L45.8748 14.6382L45.6654 14.7587L45.1522 14.2566L42.8494 11.599L45.4223 10.1263C52.0067 6.35745 58.321 5.60769 63.217 8.02431L68.7817 10.943L69.5448 14.5646L68.6533 18.3669C68.5723 18.6815 68.363 18.9426 68.0726 19.0698C67.9375 19.13 67.7889 19.1635 67.6404 19.1635V19.1367Z" fill="black"/>
<path d="M51.3112 16.5595L51.3652 16.526C57.0649 13.2659 62.5013 12.6032 66.6747 14.6516C67.3703 14.993 67.762 15.8097 67.762 16.8942V18.2397L67.8498 18.3535L70.2202 17.8314V15.4884C70.2202 13.6274 69.5381 12.2283 68.3428 11.6392C63.7101 9.36316 57.6795 10.0995 51.3652 13.7211L49.6904 14.6784L51.318 16.5595H51.3112Z" fill="black"/>
<path d="M61.414 12.63C63.4467 12.63 65.3443 13.045 67.0529 13.8818C68.0456 14.3705 68.6196 15.4616 68.6196 16.8808V17.2958L69.349 17.1352V15.475C69.349 13.9487 68.8425 12.8241 67.9511 12.3957C63.5817 10.2535 57.8483 10.9832 51.7839 14.4508L51.0005 14.8993L51.4868 15.4683C54.9511 13.5872 58.3277 12.6233 61.4005 12.6233H61.414V12.63ZM67.4986 19.3041L66.9043 18.5209V16.8942C66.9043 16.1578 66.6747 15.6089 66.2898 15.4215C62.3797 13.5069 57.2337 14.1562 51.7974 17.2691L51.1761 17.6239L50.6561 17.1218L48.3533 14.4642L50.9262 12.9914C57.5039 9.22929 63.8181 8.47284 68.7209 10.8828C70.2134 11.6124 71.071 13.2994 71.071 15.4951V18.5276L67.4918 19.3175L67.4986 19.3041Z" fill="black"/>
<path d="M40.3506 9.83844C40.1818 9.69787 39.9927 9.59076 39.7833 9.51043C39.0472 9.22927 38.1085 9.35646 37.1226 9.92547L27.945 15.1804C26.6551 15.9168 25.453 17.3561 24.7574 18.9895C23.6499 21.5801 22.7788 24.1775 22.1169 26.7414L39.8644 36.6154L53.7219 17.4297L49.8794 15.2474L49.7645 15.2742L40.3708 9.83844H40.3506Z" fill="white"/>
<path d="M23.1164 26.3196L39.6077 35.4974L52.4523 17.7042L49.724 16.1511L49.312 16.0105L39.7968 10.4878C39.7022 10.4075 39.5942 10.3472 39.4794 10.3003C38.9729 10.1129 38.2976 10.2401 37.5615 10.6551L28.3839 15.9101C27.2628 16.5528 26.1823 17.8581 25.5543 19.3108C24.5818 21.5868 23.7647 23.9365 23.1231 26.3129L23.1164 26.3196ZM40.1074 37.74L21.1174 27.1631L21.2863 26.5272C21.9751 23.8629 22.88 21.2119 23.9673 18.6547C24.7371 16.8473 26.0675 15.2675 27.5195 14.4374L36.6971 9.18241C37.8924 8.4996 39.0945 8.33224 40.0939 8.71382C40.3708 8.82092 40.6207 8.95481 40.8435 9.13555L49.8996 14.3771L50.2913 14.511L54.9577 17.1686L40.1007 37.74H40.1074Z" fill="black"/>
<path d="M38.6422 26.882C36.0017 33.0607 34.6038 39.2998 34.6038 44.856V65.6148C34.6038 67.4289 35.8869 68.1586 37.4739 67.2549L73.7656 46.4827C75.3526 45.5723 76.6357 43.3699 76.6357 41.5557V22.7315C76.6357 21.2923 75.8185 20.4823 74.6097 20.7501L62.069 23.5081C60.5496 23.8428 59.2394 23.4679 58.3615 22.4504L54.4852 17.9653C53.7153 17.0749 52.4052 17.0147 51.014 17.818L41.8364 23.073C40.5466 23.8093 39.3445 25.2486 38.6489 26.882H38.6422Z" fill="black"/>
<path d="M39.439 27.2167C36.8391 33.3017 35.4682 39.4002 35.4682 44.856V65.6148C35.4682 66.157 35.6235 66.5654 35.8801 66.7127C36.1367 66.8599 36.5757 66.7863 37.0484 66.5118L73.3401 45.7396C74.6637 44.9832 75.778 43.0686 75.778 41.5557V22.7316C75.778 22.2295 75.6497 21.8479 75.4269 21.6739C75.285 21.5534 75.0689 21.5266 74.7988 21.5868L62.2581 24.3449C60.4145 24.7465 58.8005 24.2779 57.7065 23.0127L53.8301 18.5276C53.1345 17.7243 51.9257 18.2866 51.4462 18.561L42.2686 23.816C41.1476 24.4587 40.0671 25.764 39.439 27.2167ZM36.1908 68.5C35.7653 68.5 35.3736 68.3996 35.0157 68.1988C34.2121 67.7369 33.7461 66.7997 33.7461 65.6148V44.856C33.7461 39.1726 35.1643 32.8398 37.852 26.5473C38.6219 24.7331 39.9523 23.16 41.4042 22.3299L50.5818 17.0749C52.3444 16.0641 54.0867 16.198 55.1402 17.4096L59.0166 21.8948C59.8607 22.8721 61.0425 22.8587 61.8867 22.6713L74.4274 19.9133C75.204 19.7392 75.9469 19.8932 76.5074 20.3417C77.1489 20.8505 77.5001 21.7006 77.5001 22.7316V41.5557C77.5001 43.6711 76.0549 46.1614 74.1978 47.2257L37.9061 67.9979C37.3253 68.3327 36.7378 68.5 36.1908 68.5Z" fill="black"/>
<path d="M68.3358 42.6201L42.6264 57.334C41.762 57.8294 41.0664 57.3072 41.0664 56.1625V47.5872C41.0664 46.4492 41.762 45.1237 42.6264 44.6351L68.3358 29.9212C69.2002 29.4258 69.8958 29.9479 69.8958 31.0926V39.6679C69.8958 40.806 69.2002 42.1314 68.3358 42.6201Z" fill="black"/>
<path d="M68.9505 30.3964C68.8762 30.3964 68.7749 30.4299 68.6669 30.4902L42.9574 45.2041C42.3024 45.579 41.7283 46.6969 41.7283 47.5939V56.1625C41.7283 56.6044 41.8634 56.8052 41.9377 56.8453C41.9985 56.8788 42.147 56.8453 42.2956 56.765L68.005 42.0511C68.6601 41.6762 69.2341 40.5583 69.2341 39.6613V31.0859C69.2341 30.6441 69.0991 30.4433 69.0248 30.4031C69.0045 30.3897 68.9843 30.3831 68.9572 30.3831L68.9505 30.3964ZM41.9985 58.1775C41.7418 58.1775 41.492 58.1172 41.2691 57.9901C40.7153 57.6754 40.3979 57.006 40.3979 56.1692V47.6006C40.3979 46.235 41.2286 44.6819 42.2888 44.0794L67.9983 29.3655C68.5791 29.0308 69.1869 29.004 69.6798 29.2785C70.2336 29.5931 70.551 30.2626 70.551 31.0993V39.6746C70.551 41.0403 69.7204 42.5933 68.6601 43.1958L42.9507 57.9097C42.6333 58.0905 42.3091 58.1842 41.9917 58.1842L41.9985 58.1775Z" fill="#5AC5C9"/>
<path d="M42.6198 44.6217C41.7554 45.117 41.0598 46.4358 41.0598 47.5738V54.5827L65.189 40.7725C66.0534 40.2771 66.749 38.9583 66.749 37.8203V30.8115L42.6198 44.6217Z" fill="black"/>
<path d="M42.9507 45.1907C42.2956 45.5656 41.7216 46.6835 41.7216 47.5805V53.4447L64.8513 40.2102C65.5064 39.8353 66.0804 38.7174 66.0804 37.8203V31.9562L42.9507 45.1974V45.1907ZM40.3979 55.714V47.5738C40.3979 46.2082 41.2286 44.6551 42.2888 44.0527L67.404 29.6801V37.8203C67.404 39.186 66.5734 40.739 65.5131 41.3415L40.3979 55.714Z" fill="#5AC5C9"/>
<path d="M21.2063 33.0191L20.3481 34.499L34.1833 42.3819L35.0415 40.902L21.2063 33.0191Z" fill="black"/>
<path d="M58.9827 34.5L44.5781 42.7473L45.2399 43.8853L59.6445 35.638L58.9827 34.5Z" fill="#5AC5C9"/>
<path d="M46.9417 11.0903V6.35074C46.9417 6.25703 46.8674 6.19678 46.7729 6.19678H30.2748C30.1802 6.19678 30.106 6.2838 30.106 6.37083V11.1103C30.16 12.8776 31.8888 14.6248 35.3262 15.5151C37.4129 16.0507 39.628 16.0507 41.7215 15.5151C45.1588 14.6382 46.8877 12.8843 46.9417 11.1103V11.0903Z" fill="#5AC5C9"/>
<path d="M30.9705 7.05365V11.0099C31.0245 12.5898 32.7736 13.9688 35.5492 14.6851C37.5009 15.1871 39.5538 15.1871 41.5055 14.6851C44.2811 13.9755 46.0302 12.5965 46.0774 11.0903V7.06034H30.9705V7.05365ZM38.5206 16.767C37.3793 16.767 36.2245 16.6264 35.1102 16.3385C31.5108 15.4147 29.316 13.4734 29.2417 11.1371V6.37753C29.2417 5.82191 29.6942 5.35331 30.2547 5.34662H46.7663C47.3335 5.34662 47.7927 5.78844 47.7927 6.35745V11.1974C47.732 13.4801 45.5304 15.4214 41.931 16.3452C40.8167 16.6264 39.6686 16.7737 38.5206 16.7737V16.767Z" fill="black"/>
<path d="M46.9417 14.491V9.75144C46.9417 9.65772 46.8674 9.59747 46.7729 9.59747H30.2748C30.1802 9.59747 30.106 9.6845 30.106 9.77152V14.511C30.16 16.2783 31.8888 18.0255 35.3262 18.9158C37.4129 19.4514 39.628 19.4514 41.7215 18.9158C45.1588 18.0389 46.8877 16.285 46.9417 14.511V14.491Z" fill="#5AC5C9"/>
<path d="M30.9771 10.4543V14.4106C31.0311 15.9972 32.7802 17.3762 35.5558 18.0858C37.5007 18.5878 39.5672 18.5878 41.5121 18.0858C44.2877 17.3762 46.0367 15.9972 46.084 14.4843V10.4543H30.9771ZM38.5272 20.1744C37.3791 20.1744 36.2311 20.0338 35.1168 19.7459C31.5174 18.8288 29.3226 16.8808 29.2483 14.5445V9.78491C29.2483 9.22259 29.7075 8.754 30.2748 8.754H46.7728C47.3401 8.754 47.8061 9.19582 47.8061 9.75813V14.5713C47.7386 16.8741 45.5438 18.8221 41.9443 19.7392C40.83 20.0204 39.682 20.1677 38.5339 20.1677L38.5272 20.1744Z" fill="black"/>
<path d="M46.7729 6.19679H40.2695V15.7829C40.7558 15.716 41.242 15.629 41.7147 15.5085C45.1521 14.6315 46.8809 12.8776 46.9349 11.1037V6.34406C46.9349 6.25034 46.8607 6.19009 46.7661 6.19009L46.7729 6.19679Z" fill="black"/>
<path d="M44.4836 2.77604C47.7724 4.65712 47.7724 7.70969 44.4836 9.59077C41.1948 11.4719 35.8665 11.4719 32.5777 9.59077C29.2889 7.70969 29.2889 4.65712 32.5777 2.77604C35.8665 0.894965 41.1948 0.894965 44.4836 2.77604Z" fill="white"/>
<path d="M38.5274 2.21373C36.5284 2.21373 34.5295 2.64886 33.0032 3.51911C31.6931 4.27556 30.9638 5.21275 30.9638 6.18341C30.9638 7.15408 31.6864 8.09796 33.0032 8.84772C36.0489 10.5949 41.0058 10.5882 44.0447 8.84772C45.3548 8.09127 46.0842 7.15408 46.0842 6.18341C46.0842 5.21275 45.3616 4.26886 44.0447 3.51241C42.5252 2.64216 40.5263 2.20704 38.5206 2.20704L38.5274 2.21373ZM38.5274 11.8668C36.2245 11.8668 33.9352 11.3581 32.1388 10.3271C30.2749 9.26276 29.2417 7.78333 29.2417 6.18341C29.2417 4.58349 30.2749 3.10407 32.1388 2.03968C35.718 -0.00875165 41.3232 -0.00875165 44.9091 2.03968C46.773 3.10407 47.8063 4.58349 47.8063 6.18341C47.8063 7.78333 46.773 9.26276 44.9091 10.3271C43.1195 11.3514 40.8234 11.8668 38.5274 11.8668Z" fill="black"/>
<path d="M33.3677 9.61084H32.0374V14.4575H33.3677V9.61084Z" fill="black"/>
<path d="M36.0152 10.5949H34.6848V15.4415H36.0152V10.5949Z" fill="black"/>
<path d="M38.7906 11.0501H37.4602V15.8967H38.7906V11.0501Z" fill="black"/>
<path d="M5.95665 56.0889L1.76966 53.4915C1.35096 53.2305 1.22941 52.6815 1.50629 52.2799C3.78887 48.9328 13.5608 35.7585 26.7362 34.2523C28.9378 34.0046 30.6058 35.5376 30.4438 37.7266V37.8069C30.3222 39.3935 29.0864 40.652 27.4994 40.826C17.3763 41.9574 9.1239 52.9694 7.12495 55.8546C6.86158 56.2362 6.34158 56.3433 5.94314 56.0956L5.95665 56.0889Z" fill="#5AC5C9"/>
<path d="M27.2089 35.0757C27.0874 35.0757 26.9658 35.0757 26.8375 35.0958C13.8713 36.5819 4.05894 50.0641 2.22207 52.7552L6.41581 55.3659H6.42932C8.73216 52.0456 17.0318 41.1273 27.4115 39.9692C28.5866 39.842 29.4982 38.9048 29.5793 37.74C29.6401 36.8698 29.4037 36.1736 28.8972 35.705C28.465 35.2899 27.8707 35.0757 27.2022 35.0757H27.2089ZM6.42256 57.0796C6.10516 57.0796 5.78776 56.9926 5.50413 56.8119L1.31714 54.2145C0.918706 53.9735 0.635072 53.5652 0.540527 53.11C0.445982 52.6481 0.540527 52.1862 0.797148 51.7979C3.47817 47.8684 13.2703 34.9284 26.6416 33.4021C27.9855 33.2415 29.2079 33.6297 30.0993 34.4732C30.9772 35.31 31.4027 36.4815 31.3149 37.7869C31.1663 39.8487 29.6063 41.4486 27.6141 41.6695C17.7072 42.7674 9.42098 54.0806 7.861 56.3366C7.53009 56.8186 6.98308 57.0796 6.43607 57.0796H6.42256Z" fill="black"/>
<path d="M5.39609 53.525L3.84961 54.7032L5.83505 55.9349C6.22674 56.1759 6.75349 56.0755 7.01686 55.6939C9.01581 52.8154 17.2615 41.79 27.3913 40.6654C28.9715 40.4913 30.2074 39.2395 30.3289 37.6463V37.5659C14.1753 37.7869 5.4096 53.5183 5.4096 53.5183L5.39609 53.525Z" fill="black"/>
</g>
<defs>
<clipPath id="clip0_1_7704">
<rect width="77" height="68" fill="white" transform="translate(0.5 0.5)"/>
</clipPath>
</defs>
</svg>
