<svg width="200" height="200" viewBox="0 0 200 200" xmlns="http://www.w3.org/2000/svg">
  <defs>
    <linearGradient id="primaryGradient" x1="0%" y1="0%" x2="100%" y2="100%">
      <stop offset="0%" style="stop-color:#000000;stop-opacity:1" />
      <stop offset="100%" style="stop-color:#ED6623;stop-opacity:1" />
    </linearGradient>
    
    <linearGradient id="accentGradient" x1="0%" y1="0%" x2="100%" y2="100%">
      <stop offset="0%" style="stop-color:#ED6623;stop-opacity:1" />
      <stop offset="100%" style="stop-color:#000000;stop-opacity:1" />
    </linearGradient>
    
    <filter id="glow" x="-50%" y="-50%" width="200%" height="200%">
      <feGaussianBlur stdDeviation="3" result="coloredBlur"/>
      <feMerge> 
        <feMergeNode in="coloredBlur"/>
        <feMergeNode in="SourceGraphic"/>
      </feMerge>
    </filter>
  </defs>
  
  <!-- Background Circle -->
  <circle cx="100" cy="100" r="95" fill="none" stroke="url(#primaryGradient)" stroke-width="2" opacity="0.1"/>
  
  <!-- D - Dynamic Digital -->
  <path d="M 40 60 L 40 140 L 70 140 Q 90 140 90 120 L 90 80 Q 90 60 70 60 Z" 
        fill="url(#primaryGradient)" 
        filter="url(#glow)"/>
  <path d="M 50 70 L 50 130 L 70 130 Q 80 130 80 120 L 80 80 Q 80 70 70 70 Z" 
        fill="white" opacity="0.9"/>
  
  <!-- C - Connected Chief -->
  <path d="M 110 60 Q 90 60 90 80 L 90 120 Q 90 140 110 140 L 130 140 L 130 130 L 110 130 Q 100 130 100 120 L 100 80 Q 100 70 110 70 L 130 70 L 130 60 Z" 
        fill="url(#accentGradient)" 
        filter="url(#glow)"/>
  
  <!-- S - Strategic Staff -->
  <path d="M 140 60 L 160 60 Q 170 60 170 70 L 170 80 Q 170 90 160 90 L 150 90 L 150 100 L 160 100 Q 170 100 170 110 L 170 120 Q 170 130 160 130 L 140 130 L 140 120 L 160 120 Q 150 120 150 110 L 150 100 L 140 100 Z" 
        fill="url(#primaryGradient)" 
        filter="url(#glow)"/>
  
  <!-- Connecting Lines -->
  <line x1="90" y1="100" x2="110" y2="100" stroke="url(#accentGradient)" stroke-width="2" opacity="0.6"/>
  <line x1="130" y1="100" x2="140" y2="100" stroke="url(#primaryGradient)" stroke-width="2" opacity="0.6"/>
  
  <!-- Tech Circuit Elements -->
  <circle cx="100" cy="100" r="3" fill="url(#accentGradient)"/>
  <circle cx="130" cy="100" r="3" fill="url(#primaryGradient)"/>
  
  <!-- Modern Accent Lines -->
  <line x1="30" y1="50" x2="50" y2="50" stroke="url(#accentGradient)" stroke-width="1" opacity="0.4"/>
  <line x1="150" y1="50" x2="170" y2="50" stroke="url(#primaryGradient)" stroke-width="1" opacity="0.4"/>
  <line x1="30" y1="150" x2="50" y2="150" stroke="url(#primaryGradient)" stroke-width="1" opacity="0.4"/>
  <line x1="150" y1="150" x2="170" y2="150" stroke="url(#accentGradient)" stroke-width="1" opacity="0.4"/>
</svg>
