<svg width="300" height="60" viewBox="0 0 300 60" xmlns="http://www.w3.org/2000/svg">
  <defs>
    <linearGradient id="primaryGradient" x1="0%" y1="0%" x2="100%" y2="0%">
      <stop offset="0%" style="stop-color:#000000;stop-opacity:1" />
      <stop offset="100%" style="stop-color:#ED6623;stop-opacity:1" />
    </linearGradient>
    
    <linearGradient id="accentGradient" x1="0%" y1="0%" x2="100%" y2="0%">
      <stop offset="0%" style="stop-color:#ED6623;stop-opacity:1" />
      <stop offset="100%" style="stop-color:#000000;stop-opacity:1" />
    </linearGradient>
  </defs>
  
  <!-- D - Dynamic Digital -->
  <path d="M 15 15 L 15 45 L 25 45 Q 32 45 32 38 L 32 22 Q 32 15 25 15 Z" 
        fill="url(#primaryGradient)"/>
  <path d="M 18 18 L 18 42 L 25 42 Q 29 42 29 38 L 29 22 Q 29 18 25 18 Z" 
        fill="white" opacity="0.9"/>
  
  <!-- C - Connected Chief -->
  <path d="M 42 15 Q 32 15 32 22 L 32 38 Q 32 45 42 45 L 50 45 L 50 42 L 42 42 Q 37 42 37 38 L 37 22 Q 37 18 42 18 L 50 18 L 50 15 Z" 
        fill="url(#accentGradient)"/>
  
  <!-- S - Strategic Staff -->
  <path d="M 55 15 L 62 15 Q 67 15 67 20 L 67 25 Q 67 30 62 30 L 58 30 L 58 33 L 62 33 Q 67 33 67 38 L 67 43 Q 67 48 62 48 L 55 48 L 55 43 L 62 43 Q 58 43 58 38 L 58 33 L 55 33 Z" 
        fill="url(#primaryGradient)"/>
  
  <!-- Connecting Lines -->
  <line x1="32" y1="30" x2="42" y2="30" stroke="url(#accentGradient)" stroke-width="1.5" opacity="0.8"/>
  <line x1="50" y1="30" x2="55" y2="30" stroke="url(#primaryGradient)" stroke-width="1.5" opacity="0.8"/>
  
  <!-- Tech Circuit Elements -->
  <circle cx="37" cy="30" r="2" fill="url(#accentGradient)"/>
  <circle cx="52" cy="30" r="2" fill="url(#primaryGradient)"/>
  
  <!-- Company Name -->
  <text x="85" y="30" font-family="Arial, sans-serif" font-size="20" font-weight="bold" fill="#000000">The Digital</text>
  <text x="85" y="50" font-family="Arial, sans-serif" font-size="20" font-weight="bold" fill="#ED6623">Chief of Staff</text>
</svg>
