<svg width="79" height="79" viewBox="0 0 79 79" fill="none" xmlns="http://www.w3.org/2000/svg">
<path d="M21.7646 21.3221L17.6092 23.7237L12.8929 26.4492L7.07056 7.89213L11.1549 6.61233C12.095 6.32003 13.0588 6.20943 13.9831 6.26473C17.1273 6.46223 19.9792 8.55573 20.9746 11.7473L22.2228 15.7368C22.8311 17.6644 22.6099 19.6552 21.7567 21.33L21.7646 21.3221Z" fill="#5AC5C9" stroke="black" stroke-width="2" stroke-linecap="round" stroke-linejoin="round"/>
<path d="M17.6092 23.7237L12.8929 26.4492L7.07056 7.89213L11.1549 6.61233C12.095 6.32003 13.0588 6.20943 13.9831 6.26473H13.991C11.5025 10.7282 14.8047 19.3866 17.388 21.9699C17.9568 22.5387 17.9568 23.1391 17.6013 23.7237H17.6092Z" fill="black"/>
<path d="M38.2993 55.5924L36.6403 56.1138L31.5211 57.7175L23.4868 60.2376L11.7158 22.6968L15.5078 21.5039C16.9693 21.0457 18.4466 20.8956 19.8765 21.0062C24.4269 21.3696 28.5191 24.4348 29.9727 29.0642L38.2914 55.5845L38.2993 55.5924Z" fill="#5AC5C9" stroke="black" stroke-width="2" stroke-miterlimit="10"/>
<path d="M31.5211 57.7175L23.4868 60.2376L11.7158 22.6968L15.5078 21.5039C16.9693 21.0457 18.4466 20.8956 19.8765 21.0062C15.5078 23.9213 25.4697 55.3949 30.7074 57.1408C31.1656 57.2909 31.4263 57.4884 31.5132 57.7096L31.5211 57.7175Z" fill="black"/>
<path d="M71.9295 59.9768V65.1908C71.9295 68.8801 68.9354 71.8663 65.254 71.8663H33.2353C29.8383 71.8663 27.0259 69.3699 26.5203 66.1151L28.5822 63.9584L36.4032 55.774L62.41 51.8003C67.2764 51.0577 71.6688 54.6838 71.9295 59.5344C71.9374 59.6845 71.9453 59.8346 71.9453 59.9847L71.9295 59.9768Z" fill="black"/>
<path d="M71.9136 59.5265C71.7082 63.0262 68.801 65.7991 65.246 65.7991H33.2273C31.4261 65.7991 29.7908 65.096 28.5742 63.9584L36.3952 55.774L62.402 51.8003C67.2684 51.0577 71.6608 54.6838 71.9215 59.5344L71.9136 59.5265Z" fill="#5AC5C9" stroke="black" stroke-width="2" stroke-miterlimit="10"/>
<path d="M37.9438 60.2375C37.9438 64.227 34.7127 67.466 30.7153 67.466C26.7179 67.466 23.4868 64.2349 23.4868 60.2375C23.4868 56.2401 26.7179 53.009 30.7153 53.009C34.7127 53.009 37.9438 56.2401 37.9438 60.2375Z" fill="#5AC5C9" stroke="black" stroke-width="2" stroke-miterlimit="10"/>
<path d="M33.7961 60.2376C33.7961 61.944 32.4136 63.3186 30.7151 63.3186C29.0166 63.3186 27.6262 61.9361 27.6262 60.2376C27.6262 58.5391 29.0087 57.1487 30.7151 57.1487C32.4215 57.1487 33.7961 58.5312 33.7961 60.2376Z" fill="black"/>
<path d="M66.0441 24.4111C66.0441 32.6982 61.5727 39.6581 55.5371 41.5936C54.4469 41.9412 53.3093 42.1308 52.1322 42.1308C44.4455 42.1308 38.2124 34.1992 38.2124 24.4111C38.2124 14.623 44.4455 6.69141 52.1322 6.69141C53.3093 6.69141 54.4469 6.87311 55.5371 7.22861C61.5727 9.16411 66.0441 16.124 66.0441 24.4111Z" fill="black" stroke="black" stroke-width="3" stroke-miterlimit="10"/>
<path d="M66.0441 24.411C66.0441 32.6981 61.5727 39.658 55.5371 41.5935C49.9044 39.658 45.7332 32.6981 45.7332 24.411C45.7332 16.1239 49.9044 9.16402 55.5371 7.22852C61.5727 9.16402 66.0441 16.1239 66.0441 24.411Z" fill="#EE6519" stroke="black" stroke-width="3" stroke-linecap="round" stroke-linejoin="round"/>
</svg>
