<svg width="85" height="85" viewBox="0 0 85 85" fill="none" xmlns="http://www.w3.org/2000/svg">
<path d="M75.7605 53.8816L9.24805 63.0361V66.1216C9.24805 66.7591 9.63055 67.3626 10.4125 67.8131L31.6115 80.0531C33.3455 81.0561 36.3715 80.9286 38.369 79.7726L74.1115 59.1346C75.2165 58.4971 75.769 57.6811 75.7605 56.9161V53.8816Z" fill="#5AC5C9" stroke="black" stroke-width="2" stroke-miterlimit="10"/>
<path d="M74.5874 52.2071L53.3884 39.9671C51.6544 38.9641 48.6284 39.0916 46.6309 40.2476L10.8884 60.8856C8.89092 62.0416 8.66992 63.7841 10.4039 64.7871L31.6029 77.0271C33.3369 78.0301 36.3629 77.9026 38.3604 76.7466L74.1029 56.1086C76.1004 54.9526 76.3214 53.2101 74.5874 52.2071Z" fill="#EE6519" stroke="black" stroke-width="2" stroke-miterlimit="10"/>
<path d="M74.375 23.2051L10.625 31.9771V62.1351C10.625 62.7471 10.9905 63.3251 11.747 63.7586L32.062 75.4886C33.7195 76.4491 36.618 76.3301 38.539 75.2166L72.794 55.4371C73.848 54.8251 74.3835 54.0431 74.375 53.3036V23.2051Z" fill="#5AC5C9" stroke="black" stroke-width="2" stroke-miterlimit="10"/>
<path d="M75.7605 22.0491L9.2395 31.2121V34.2976C9.2395 34.9351 9.622 35.5386 10.404 35.9891L31.603 48.2291C33.337 49.2321 36.363 49.1046 38.3605 47.9486L74.103 27.3106C75.208 26.6731 75.7605 25.8571 75.752 25.0921V22.0576L75.7605 22.0491Z" fill="black"/>
<path d="M74.5875 20.3829L53.3885 8.1429C51.6545 7.1399 48.6285 7.2674 46.631 8.4234L10.897 29.0529C8.89947 30.2089 8.67847 31.9514 10.4125 32.9544L31.6115 45.1944C33.3455 46.1974 36.3715 46.0699 38.369 44.9139L74.1115 24.2759C76.109 23.1199 76.33 21.3774 74.596 20.3744L74.5875 20.3829Z" fill="#5AC5C9" stroke="black" stroke-width="2" stroke-miterlimit="10"/>
<path d="M70.6265 19.2695L61.3445 20.0175V22.593C61.3445 23.205 61.7185 23.7915 62.475 24.225C64.1495 25.194 67.082 25.075 69.02 23.953C70.0825 23.341 70.6265 22.5505 70.618 21.8025V19.2695H70.6265Z" fill="#5AC5C9" stroke="black" stroke-width="2" stroke-linecap="round" stroke-linejoin="round"/>
<path d="M69.0199 21.4116C70.9579 20.2896 71.1704 18.5981 69.4874 17.6291C67.8129 16.6601 64.8804 16.7791 62.9424 17.9011C61.0044 19.0231 60.7919 20.7146 62.4749 21.6836C64.1494 22.6526 67.0819 22.5336 69.0199 21.4116Z" fill="#5AC5C9" stroke="black" stroke-width="2" stroke-linecap="round" stroke-linejoin="round"/>
<path d="M65.3903 15.47V11.5005L10.7268 28.6025V32.6485C10.7268 32.9545 10.9138 33.2435 11.2878 33.456L21.8533 39.5505C22.6863 40.035 24.1398 39.967 25.1003 39.4145L34.0338 34.255C34.9943 33.7025 36.4478 33.643 37.2808 34.119L45.6533 38.9555C46.4863 39.44 47.9398 39.372 48.9003 38.8195L63.5798 30.345C64.1323 30.022 64.4043 29.614 64.3703 29.223V25.3045C64.3703 25.3045 55.2243 22.0235 55.6748 21.76L64.6083 16.6005C65.1778 16.2775 65.4413 15.8525 65.3988 15.453L65.3903 15.47Z" fill="black"/>
<path d="M50.8128 25.687H29.9963V36.5925L34.0338 34.2635C34.9943 33.711 36.4478 33.6515 37.2808 34.1275L45.6533 38.964C46.4863 39.4485 47.9398 39.3805 48.9003 38.828L50.8128 37.723V25.687Z" fill="black"/>
<path d="M52.5044 17.4419L55.6664 21.7684L64.5999 16.6089C65.1694 16.2859 65.4329 15.8609 65.3904 15.4614V11.4919L52.5044 17.4419Z" fill="black"/>
<path d="M63.8094 24.4375L55.4369 19.601C54.6039 19.1165 54.7059 18.2835 55.6664 17.7225L64.5999 12.563C65.5604 12.0105 65.6624 11.169 64.8294 10.6845L54.2639 4.59001C53.4309 4.10551 51.9774 4.17351 51.0169 4.72601L11.5174 27.54C10.5569 28.0925 10.4549 28.934 11.2879 29.4185L21.8534 35.513C22.6864 35.9975 24.1399 35.9295 25.1004 35.377L34.0339 30.2175C34.9944 29.665 36.4479 29.6055 37.2809 30.0815L45.6534 34.918C46.4864 35.4025 47.9399 35.3345 48.9004 34.782L63.5799 26.3075C64.5404 25.755 64.6424 24.9135 63.8094 24.429V24.4375Z" fill="#5AC5C9" stroke="black" stroke-width="2" stroke-miterlimit="10"/>
<path d="M39.406 37.2896L30.124 38.0376V40.6131C30.124 41.2251 30.498 41.8116 31.2545 42.2451C32.929 43.2141 35.8615 43.0951 37.7995 41.9731C38.862 41.3611 39.406 40.5706 39.3975 39.8226V37.2896H39.406Z" fill="#5AC5C9" stroke="black" stroke-width="2" stroke-linecap="round" stroke-linejoin="round"/>
<path d="M37.8083 39.4316C39.7463 38.3096 39.9588 36.6181 38.2758 35.6491C36.6013 34.6801 33.6688 34.7991 31.7308 35.9211C29.7928 37.0431 29.5803 38.7346 31.2633 39.7036C32.9378 40.6726 35.8703 40.5536 37.8083 39.4316Z" fill="#5AC5C9" stroke="black" stroke-width="2" stroke-linecap="round" stroke-linejoin="round"/>
<path d="M38.3095 33.949L31.229 34.5185V37.6805C31.229 38.148 31.518 38.59 32.0875 38.93C33.371 39.6695 35.6065 39.576 37.0855 38.726C37.9015 38.2585 38.3095 37.655 38.3095 37.0855V33.949Z" fill="#EE6519" stroke="black" stroke-width="2" stroke-linecap="round" stroke-linejoin="round"/>
<path d="M37.0855 35.5895C38.5645 34.7395 38.726 33.4475 37.4425 32.708C36.159 31.9685 33.9235 32.062 32.4445 32.912C30.9655 33.762 30.804 35.054 32.0875 35.7935C33.371 36.533 35.6065 36.4395 37.0855 35.5895Z" fill="#EE6519" stroke="black" stroke-width="2" stroke-linecap="round" stroke-linejoin="round"/>
<path d="M69.5214 15.929L62.4409 16.4985V19.6605C62.4409 20.128 62.7299 20.57 63.2994 20.91C64.5829 21.6495 66.8184 21.556 68.2974 20.706C69.1134 20.2385 69.5214 19.635 69.5214 19.0655V15.929Z" fill="#EE6519" stroke="black" stroke-width="2" stroke-linecap="round" stroke-linejoin="round"/>
<path d="M68.306 17.561C69.785 16.711 69.9465 15.419 68.663 14.6795C67.3795 13.94 65.144 14.0335 63.665 14.8835C62.186 15.7335 62.0245 17.0255 63.308 17.765C64.5915 18.5045 66.827 18.411 68.306 17.561Z" fill="#EE6519" stroke="black" stroke-width="2" stroke-linecap="round" stroke-linejoin="round"/>
<path d="M40.4004 51.0681L48.9684 46.1211V67.2691L40.4004 72.2161V51.0681Z" fill="black"/>
<path d="M51.4929 44.6589L60.0609 39.7119V60.8599L51.4929 65.8069V44.6589Z" fill="black"/>
<path d="M62.594 38.2414L71.162 33.2944V54.4424L62.594 59.3894V38.2414Z" fill="black"/>
<path d="M25.976 28.4496C27.6675 27.4721 27.846 26.0016 26.384 25.1516C24.922 24.3101 22.3635 24.4121 20.6805 25.3896C18.989 26.3671 18.8105 27.8376 20.2725 28.6876C21.7345 29.5291 24.293 29.4271 25.976 28.4496Z" fill="black"/>
<path d="M25.806 26.0527L24.837 25.4917L23.324 26.3672L21.811 25.4917L20.842 26.0527L22.355 26.9282L20.842 27.8037L21.811 28.3647L23.324 27.4892L24.837 28.3647L25.806 27.8037L24.293 26.9282L25.806 26.0527Z" fill="#5AC5C9"/>
<path d="M34.6969 23.579C36.3884 22.6015 36.5669 21.131 35.1049 20.281C33.6429 19.4395 31.0844 19.5415 29.4014 20.519C27.7099 21.4965 27.5314 22.967 28.9934 23.817C30.4554 24.6585 33.0139 24.5565 34.6969 23.579Z" fill="black"/>
<path d="M34.527 21.1821L33.558 20.6211L32.045 21.4966L30.532 20.6211L29.563 21.1821L31.076 22.0576L29.563 22.9331L30.532 23.4941L32.045 22.6186L33.558 23.4941L34.527 22.9331L33.014 22.0576L34.527 21.1821Z" fill="#5AC5C9"/>
<path d="M43.2904 18.5131C44.9819 17.5356 45.1604 16.0651 43.6984 15.2151C42.2364 14.3736 39.6779 14.4756 37.9949 15.4531C36.3034 16.4306 36.1249 17.9011 37.5869 18.7511C39.0489 19.5926 41.6074 19.4906 43.2904 18.5131Z" fill="black"/>
<path d="M43.1205 16.1076L42.1515 15.5466L40.6385 16.4221L39.1255 15.5466L38.1565 16.1076L39.6695 16.9831L38.1565 17.8586L39.1255 18.4196L40.6385 17.5441L42.1515 18.4196L43.1205 17.8586L41.6075 16.9831L43.1205 16.1076Z" fill="#5AC5C9"/>
<path d="M51.3825 13.838C53.074 12.8605 53.2525 11.39 51.7905 10.54C50.3285 9.69852 47.77 9.80052 46.087 10.778C44.3955 11.7555 44.217 13.226 45.679 14.076C47.141 14.9175 49.6995 14.8155 51.3825 13.838Z" fill="black"/>
<path d="M51.2125 11.4411L50.2435 10.8801L48.7305 11.7556L47.2175 10.8801L46.2485 11.4411L47.7615 12.3166L46.2485 13.1921L47.2175 13.7531L48.7305 12.8776L50.2435 13.7531L51.2125 13.1921L49.6995 12.3166L51.2125 11.4411Z" fill="#5AC5C9"/>
</svg>
