<svg width="85" height="85" viewBox="0 0 85 85" fill="none" xmlns="http://www.w3.org/2000/svg">
<g clip-path="url(#clip0_1_9513)">
<path d="M29.59 40.29C29.24 39.73 29.01 39.11 28.91 38.45L24.02 41.3L14.76 36.23C14.76 36.23 23.53 31.16 23.55 31.15C23.85 30.98 24.22 30.98 24.51 31.15L28.85 33.66V31.43L25.48 29.48C24.58 28.96 23.48 28.96 22.59 29.48L13.44 34.77C12.55 35.29 12 36.24 12 37.27V47.86C12 48.89 12.55 49.84 13.44 50.36L22.59 55.65C23.49 56.14 24.58 56.14 25.48 55.65L28.85 53.7V51.47L25 53.7V42.95L29.59 40.28V40.29Z" fill="black"/>
<path d="M32.23 40.25C32.23 40.25 41.38 45.54 41.38 45.55C42.28 46.05 43.37 46.05 44.27 45.55L53.42 40.25C54.31 39.73 54.86 38.78 54.86 37.75V27.15C54.86 26.12 54.31 25.17 53.42 24.65L44.27 19.35C43.37 18.83 42.27 18.83 41.38 19.35L32.23 24.65C31.34 25.17 30.79 26.12 30.79 27.15V37.75C30.79 38.78 31.34 39.73 32.23 40.25ZM52.95 37.75C52.95 38.09 52.77 38.41 52.47 38.58L43.8 43.6V32.84L52.95 27.5V37.75ZM42.35 21.03C42.65 20.86 43.01 20.86 43.31 21.03L51.8 25.94L42.81 31.18L33.55 26.11L42.34 21.03H42.35Z" fill="black"/>
<path d="M67.3999 20.89C67.9299 20.89 68.3599 20.46 68.3599 19.93V18.97C68.3599 18.44 67.9299 18.01 67.3999 18.01C66.8699 18.01 66.4399 18.44 66.4399 18.97V19.93C66.4399 20.46 66.8699 20.89 67.3999 20.89Z" fill="black"/>
<path d="M67.3999 26.67C67.9299 26.67 68.3599 26.24 68.3599 25.71V24.75C68.3599 24.22 67.9299 23.79 67.3999 23.79C66.8699 23.79 66.4399 24.22 66.4399 24.75V25.71C66.4399 26.24 66.8699 26.67 67.3999 26.67Z" fill="black"/>
<path d="M69.8101 23.3H70.7701C71.3001 23.3 71.7301 22.87 71.7301 22.34C71.7301 21.81 71.3001 21.38 70.7701 21.38H69.8101C69.2801 21.38 68.8501 21.81 68.8501 22.34C68.8501 22.87 69.2801 23.3 69.8101 23.3Z" fill="black"/>
<path d="M64.0298 23.3H64.9898C65.5198 23.3 65.9498 22.87 65.9498 22.34C65.9498 21.81 65.5198 21.38 64.9898 21.38H64.0298C63.4998 21.38 63.0698 21.81 63.0698 22.34C63.0698 22.87 63.4998 23.3 64.0298 23.3Z" fill="black"/>
<path d="M18.2598 20.89C18.7898 20.89 19.2198 20.46 19.2198 19.93V18.97C19.2198 18.44 18.7898 18.01 18.2598 18.01C17.7298 18.01 17.2998 18.44 17.2998 18.97V19.93C17.2998 20.46 17.7298 20.89 18.2598 20.89Z" fill="black"/>
<path d="M18.2598 26.67C18.7898 26.67 19.2198 26.24 19.2198 25.71V24.75C19.2198 24.22 18.7898 23.79 18.2598 23.79C17.7298 23.79 17.2998 24.22 17.2998 24.75V25.71C17.2998 26.24 17.7298 26.67 18.2598 26.67Z" fill="black"/>
<path d="M20.67 23.3H21.63C22.16 23.3 22.59 22.87 22.59 22.34C22.59 21.81 22.16 21.38 21.63 21.38H20.67C20.14 21.38 19.71 21.81 19.71 22.34C19.71 22.87 20.14 23.3 20.67 23.3Z" fill="black"/>
<path d="M14.8902 23.3H15.8502C16.3802 23.3 16.8102 22.87 16.8102 22.34C16.8102 21.81 16.3802 21.38 15.8502 21.38H14.8902C14.3602 21.38 13.9302 21.81 13.9302 22.34C13.9302 22.87 14.3602 23.3 14.8902 23.3Z" fill="black"/>
<path d="M67.3999 58.47C66.8699 58.47 66.4399 58.9 66.4399 59.43V60.39C66.4399 60.92 66.8699 61.35 67.3999 61.35C67.9299 61.35 68.3599 60.92 68.3599 60.39V59.43C68.3599 58.9 67.9299 58.47 67.3999 58.47Z" fill="black"/>
<path d="M67.3999 64.25C66.8699 64.25 66.4399 64.68 66.4399 65.21V66.17C66.4399 66.7 66.8699 67.13 67.3999 67.13C67.9299 67.13 68.3599 66.7 68.3599 66.17V65.21C68.3599 64.68 67.9299 64.25 67.3999 64.25Z" fill="black"/>
<path d="M70.7799 61.84H69.8199C69.2899 61.84 68.8599 62.27 68.8599 62.8C68.8599 63.33 69.2899 63.76 69.8199 63.76H70.7799C71.3099 63.76 71.7399 63.33 71.7399 62.8C71.7399 62.27 71.3099 61.84 70.7799 61.84Z" fill="black"/>
<path d="M65.0001 61.84H64.0401C63.5101 61.84 63.0801 62.27 63.0801 62.8C63.0801 63.33 63.5101 63.76 64.0401 63.76H65.0001C65.5301 63.76 65.9601 63.33 65.9601 62.8C65.9601 62.27 65.5301 61.84 65.0001 61.84Z" fill="black"/>
<path d="M18.2598 58.47C17.7298 58.47 17.2998 58.9 17.2998 59.43V60.39C17.2998 60.92 17.7298 61.35 18.2598 61.35C18.7898 61.35 19.2198 60.92 19.2198 60.39V59.43C19.2198 58.9 18.7898 58.47 18.2598 58.47Z" fill="black"/>
<path d="M18.2598 64.25C17.7298 64.25 17.2998 64.68 17.2998 65.21V66.17C17.2998 66.7 17.7298 67.13 18.2598 67.13C18.7898 67.13 19.2198 66.7 19.2198 66.17V65.21C19.2198 64.68 18.7898 64.25 18.2598 64.25Z" fill="black"/>
<path d="M21.6402 61.84H20.6802C20.1502 61.84 19.7202 62.27 19.7202 62.8C19.7202 63.33 20.1502 63.76 20.6802 63.76H21.6402C22.1702 63.76 22.6002 63.33 22.6002 62.8C22.6002 62.27 22.1702 61.84 21.6402 61.84Z" fill="black"/>
<path d="M15.8502 61.84H14.8902C14.3602 61.84 13.9302 62.27 13.9302 62.8C13.9302 63.33 14.3602 63.76 14.8902 63.76H15.8502C16.3802 63.76 16.8102 63.33 16.8102 62.8C16.8102 62.27 16.3802 61.84 15.8502 61.84Z" fill="black"/>
<path d="M53.4298 44.89L51.3498 43.69L49.4298 44.8L51.8098 46.18L42.8198 51.42L33.5598 46.35L36.2398 44.8L34.3198 43.69L32.2398 44.89C31.3498 45.41 30.7998 46.36 30.7998 47.39V57.99C30.7998 59.02 31.3498 59.97 32.2398 60.49C32.2398 60.49 41.3898 65.78 41.3898 65.79C42.2898 66.29 43.3898 66.29 44.2798 65.79L53.4298 60.49C54.3198 59.97 54.8698 59.02 54.8698 57.99V47.39C54.8698 46.36 54.3198 45.41 53.4298 44.89ZM52.9498 57.99C52.9498 58.33 52.7698 58.65 52.4698 58.82L43.7998 63.84V53.08L52.9498 47.74V57.99Z" fill="black"/>
<path d="M72.2198 34.77L63.0698 29.48C62.1698 28.96 61.0698 28.96 60.1798 29.48L56.8098 31.43V33.66C56.8098 33.66 61.1398 31.16 61.1498 31.15C61.4498 30.99 61.8098 30.99 62.1098 31.15L70.5998 36.06L61.6098 41.3L56.7198 38.62C56.4698 40.01 55.6198 41.21 54.3998 41.92L53.2798 42.57L54.3998 43.22C55.8898 44.08 56.7998 45.67 56.8098 47.39V53.71L60.1798 55.66C61.0798 56.15 62.1698 56.15 63.0698 55.66L72.2198 50.37C73.1098 49.85 73.6598 48.9 73.6598 47.87V37.28C73.6598 36.25 73.1098 35.3 72.2198 34.78V34.77ZM71.7398 47.87C71.7398 48.21 71.5598 48.53 71.2598 48.7L62.5898 53.71V42.96L71.7398 37.62V47.86V47.87Z" fill="black"/>
<path d="M42.3498 21.03C42.6498 20.86 43.0098 20.86 43.3098 21.03L51.7998 25.94L42.8098 31.18L33.5498 26.11L42.3398 21.03H42.3498Z" fill="#5AC5C9"/>
<path d="M52.9498 57.99C52.9498 58.33 52.7698 58.65 52.4698 58.82L43.7998 63.84V53.08L52.9498 47.74V57.99Z" fill="#5AC5C9"/>
<path d="M71.7398 47.87C71.7398 48.21 71.5598 48.53 71.2598 48.7L62.5898 53.71V42.96L71.7398 37.62V47.86V47.87Z" fill="#5AC5C9"/>
</g>
<defs>
<clipPath id="clip0_1_9513">
<rect width="61.67" height="49.14" fill="white" transform="translate(12 18)"/>
</clipPath>
</defs>
</svg>
