<svg width="76" height="76" viewBox="0 0 76 76" fill="none" xmlns="http://www.w3.org/2000/svg">
<path d="M38.0422 54.5392C50.9299 54.5392 61.3774 44.0917 61.3774 31.2041C61.3774 18.3164 50.9299 7.8689 38.0422 7.8689C25.1545 7.8689 14.707 18.3164 14.707 31.2041C14.707 44.0917 25.1545 54.5392 38.0422 54.5392Z" fill="#1E1E1E" stroke="black" stroke-width="2" stroke-linecap="round" stroke-linejoin="round"/>
<path d="M45.381 9.05406C52.5925 13.0247 57.4805 20.6915 57.4805 29.5033C57.4805 42.3862 47.0349 52.8385 34.1453 52.8385C31.5808 52.8385 29.1167 52.4166 26.8066 51.6533C30.1412 53.488 33.9712 54.5325 38.0423 54.5325C50.9319 54.5325 61.3775 44.0869 61.3775 31.1974C61.3775 20.879 54.6749 12.1275 45.3877 9.04736L45.381 9.05406Z" fill="#1E1E1E" stroke="black" stroke-width="2" stroke-linecap="round" stroke-linejoin="round"/>
<path d="M22.019 48.1511C26.1973 52.1017 31.8352 54.5323 38.0423 54.5323C44.2494 54.5323 49.8873 52.1017 54.0656 48.1511H22.019Z" fill="#1E1E1E" stroke="black" stroke-width="2" stroke-linecap="round" stroke-linejoin="round"/>
<path d="M38.7117 7.87559V11.0896C38.7117 11.4646 38.4104 11.7592 38.0421 11.7592C37.6739 11.7592 37.3726 11.4646 37.3726 11.0896V7.87559C37.5935 7.8689 37.8212 7.8689 38.0421 7.8689C38.2631 7.8689 38.4908 7.8689 38.7117 7.87559Z" fill="#1E1E1E" stroke="black" stroke-width="2" stroke-linecap="round" stroke-linejoin="round"/>
<path d="M50.2822 11.3373L48.6752 14.1228C48.5547 14.3371 48.327 14.4576 48.0994 14.4576C47.9855 14.4576 47.865 14.4308 47.7646 14.3639C47.4432 14.1831 47.3293 13.7746 47.5168 13.4532L49.1238 10.6677C49.5189 10.8753 49.9072 11.103 50.2822 11.3373Z" fill="#1E1E1E" stroke="black" stroke-width="2" stroke-linecap="round" stroke-linejoin="round"/>
<path d="M58.5785 20.1225L55.793 21.7295C55.6859 21.7898 55.572 21.8166 55.4582 21.8166C55.2238 21.8166 55.0029 21.696 54.8757 21.4818C54.6949 21.1604 54.802 20.7519 55.1234 20.5644L57.9089 18.9641C58.1499 19.3391 58.3709 19.7274 58.5785 20.1225Z" fill="#1E1E1E" stroke="black" stroke-width="2" stroke-linecap="round" stroke-linejoin="round"/>
<path d="M56.0876 21.5552L55.793 21.7293C55.6859 21.7896 55.572 21.8164 55.4582 21.8164C55.2238 21.8164 55.0029 21.6958 54.8757 21.4816C54.6949 21.1602 54.802 20.7517 55.1234 20.5642L55.5854 20.2964C55.7662 20.7115 55.9336 21.1267 56.0876 21.5552Z" fill="#1E1E1E" stroke="black" stroke-width="2" stroke-linecap="round" stroke-linejoin="round"/>
<path d="M61.3775 31.204C61.3775 31.425 61.3775 31.6526 61.3708 31.8736H58.1501C57.7818 31.8736 57.4805 31.5723 57.4805 31.204C57.4805 30.8357 57.7818 30.5344 58.1501 30.5344H61.3708C61.3775 30.7554 61.3775 30.983 61.3775 31.204Z" fill="#1E1E1E" stroke="black" stroke-width="2" stroke-linecap="round" stroke-linejoin="round"/>
<path d="M58.5785 42.279C58.3709 42.6741 58.1432 43.0624 57.9022 43.4441L55.1234 41.8371C54.802 41.6496 54.6949 41.2411 54.8757 40.9197C55.0631 40.5983 55.4716 40.4912 55.793 40.6787L58.5785 42.279Z" fill="#1E1E1E" stroke="black" stroke-width="2" stroke-linecap="round" stroke-linejoin="round"/>
<path d="M50.2822 51.0641C49.9072 51.2985 49.5189 51.5261 49.1238 51.7337L47.5168 48.9482C47.3293 48.6335 47.4432 48.225 47.7646 48.0376C48.0793 47.8501 48.4944 47.9639 48.6752 48.2786L50.2822 51.0641Z" fill="#1E1E1E" stroke="black" stroke-width="2" stroke-linecap="round" stroke-linejoin="round"/>
<path d="M28.5676 48.9482L26.9606 51.7337C26.5656 51.5261 26.1772 51.2985 25.8022 51.0641L27.4093 48.2786C27.59 47.9639 27.9985 47.8501 28.3199 48.0376C28.6413 48.225 28.7551 48.6335 28.5676 48.9482Z" fill="#1E1E1E" stroke="black" stroke-width="2" stroke-linecap="round" stroke-linejoin="round"/>
<path d="M20.9609 41.8373L18.1821 43.4443C17.9411 43.0627 17.7134 42.6743 17.5059 42.2792L20.2913 40.6789C20.6128 40.4914 21.0212 40.5986 21.2087 40.92C21.3895 41.2414 21.2823 41.6498 20.9609 41.8373Z" fill="#1E1E1E" stroke="black" stroke-width="2" stroke-linecap="round" stroke-linejoin="round"/>
<path d="M18.604 31.2043C18.604 31.5725 18.3027 31.8738 17.9344 31.8738H14.7137C14.707 31.6529 14.707 31.4252 14.707 31.2043C14.707 30.9833 14.707 30.7556 14.7137 30.5347H17.9344C18.3027 30.5347 18.604 30.8293 18.604 31.2043Z" fill="#1E1E1E" stroke="black" stroke-width="2" stroke-linecap="round" stroke-linejoin="round"/>
<path d="M21.2087 21.4818C21.0815 21.696 20.8605 21.8166 20.6261 21.8166C20.5123 21.8166 20.3985 21.7898 20.2913 21.7295L17.5059 20.1225C17.7134 19.7274 17.9344 19.3391 18.1754 18.9641L20.9609 20.5644C21.2823 20.7519 21.3895 21.1604 21.2087 21.4818Z" fill="#1E1E1E" stroke="black" stroke-width="2" stroke-linecap="round" stroke-linejoin="round"/>
<path d="M28.3199 14.3641C28.2195 14.4311 28.0989 14.4578 27.9851 14.4578C27.7574 14.4578 27.5298 14.3373 27.4093 14.123L25.8022 11.3376C26.1772 11.1032 26.5656 10.8755 26.9606 10.668L28.5676 13.4535C28.7551 13.7749 28.6413 14.1833 28.3199 14.3641Z" fill="#1E1E1E" stroke="black" stroke-width="2" stroke-linecap="round" stroke-linejoin="round"/>
<path d="M38.7117 7.87559V11.0896C38.7117 11.4646 38.4104 11.7592 38.0421 11.7592C37.6739 11.7592 37.3726 11.4646 37.3726 11.0896V7.87559C37.5935 7.8689 37.8212 7.8689 38.0421 7.8689C38.2631 7.8689 38.4908 7.8689 38.7117 7.87559Z" fill="#1E1E1E" stroke="black" stroke-width="2" stroke-linecap="round" stroke-linejoin="round"/>
<path d="M38.0422 46.4372C46.4553 46.4372 53.2754 39.6171 53.2754 31.2041C53.2754 22.7911 46.4553 15.9709 38.0422 15.9709C29.6292 15.9709 22.8091 22.7911 22.8091 31.2041C22.8091 39.6171 29.6292 46.4372 38.0422 46.4372Z" fill="#5AC5C9" stroke="black" stroke-width="2" stroke-miterlimit="10"/>
<path d="M38.0422 41.9778C43.9924 41.9778 48.8159 37.1542 48.8159 31.2041C48.8159 25.254 43.9924 20.4304 38.0422 20.4304C32.0921 20.4304 27.2686 25.254 27.2686 31.2041C27.2686 37.1542 32.0921 41.9778 38.0422 41.9778Z" fill="#1E1E1E" stroke="black" stroke-width="2" stroke-linecap="round" stroke-linejoin="round"/>
<path d="M42.9036 34.5119L45.7025 39.1053C45.0262 39.7682 44.2629 40.3307 43.4326 40.7994L39.9038 36.6814C38.9262 35.5431 37.1652 35.5431 36.1876 36.6814L32.6589 40.7994C31.8286 40.3307 31.0653 39.7615 30.389 39.1053L33.1879 34.5119C33.9713 33.233 33.4222 31.5523 32.0362 30.9765L27.2754 28.9945C27.4763 28.0303 27.791 27.1197 28.2262 26.2693L33.1879 27.4478C34.6476 27.796 36.0738 26.7581 36.1943 25.2649L36.5961 20.3166C37.0648 20.2497 37.5603 20.2229 38.0491 20.2229C38.5379 20.2229 39.0267 20.2497 39.5021 20.3166L39.9038 25.2649C40.0244 26.7581 41.4506 27.796 42.9103 27.4478L47.8719 26.2693C48.3072 27.1197 48.6286 28.0303 48.8228 28.9945L44.062 30.9765C42.6759 31.5523 42.1336 33.233 42.9103 34.5119H42.9036Z" fill="#5AC5C9" stroke="black" stroke-width="2" stroke-miterlimit="10"/>
<path d="M56.2549 50.0129H21.068C17.8987 50.0129 15.3296 52.5821 15.3296 55.7513V62.3936C15.3296 65.5629 17.8987 68.132 21.068 68.132H56.2549C59.4241 68.132 61.9932 65.5629 61.9932 62.3936V55.7513C61.9932 52.5821 59.4241 50.0129 56.2549 50.0129Z" fill="#1E1E1E" stroke="black" stroke-width="2" stroke-linecap="round" stroke-linejoin="round"/>
<path d="M56.262 50.0129H55.2777C56.5164 51.0642 57.3066 52.631 57.3066 54.3854V61.0344C57.3066 64.2015 54.7353 66.7727 51.5682 66.7727H17.3589C18.3566 67.6231 19.6556 68.1387 21.0684 68.1387H56.262C59.4292 68.1387 62.0004 65.5675 62.0004 62.4003V55.7513C62.0004 52.5842 59.4292 50.0129 56.262 50.0129Z" fill="#1E1E1E" stroke="black" stroke-width="2" stroke-linecap="round" stroke-linejoin="round"/>
<path d="M24.8444 53.8631C24.7171 53.9635 24.5698 54.0104 24.4225 54.0104C24.2283 54.0104 24.0341 53.9233 23.9002 53.7626L21.2152 50.4348C21.1147 50.3143 21.0679 50.1602 21.0679 50.0129H22.5945L24.9448 52.919C25.1725 53.2069 25.1323 53.6287 24.8444 53.8631Z" fill="#1E1E1E" stroke="black" stroke-width="2" stroke-linecap="round" stroke-linejoin="round"/>
<path d="M24.8444 53.8631C24.7171 53.9635 24.5698 54.0104 24.4225 54.0104C24.2283 54.0104 24.0341 53.9233 23.9002 53.7626L21.2152 50.4348C21.1147 50.3143 21.0679 50.1602 21.0679 50.0129H22.5945L24.9448 52.919C25.1725 53.2069 25.1323 53.6287 24.8444 53.8631Z" fill="#1E1E1E" stroke="black" stroke-width="2" stroke-linecap="round" stroke-linejoin="round"/>
<path d="M32.3238 53.8631C32.2033 53.9635 32.0493 54.0104 31.902 54.0104C31.7078 54.0104 31.5136 53.9233 31.3797 53.7626L28.6947 50.4348C28.5942 50.3143 28.5474 50.1602 28.5474 50.0129H30.0807L32.4243 52.919C32.6586 53.2069 32.6118 53.6287 32.3238 53.8631Z" fill="#1E1E1E" stroke="black" stroke-width="2" stroke-linecap="round" stroke-linejoin="round"/>
<path d="M39.803 53.8631C39.6825 53.9635 39.5352 54.0104 39.3878 54.0104C39.1937 54.0104 38.9995 53.9233 38.8656 53.7626L36.1805 50.4348C36.0801 50.3143 36.0332 50.1602 36.0332 50.0129H37.5599L39.9034 52.919C40.1378 53.2069 40.0909 53.6287 39.803 53.8631Z" fill="#1E1E1E" stroke="black" stroke-width="2" stroke-linecap="round" stroke-linejoin="round"/>
<path d="M47.2887 53.8631C47.1615 53.9635 47.0142 54.0104 46.8668 54.0104C46.6727 54.0104 46.4785 53.9233 46.3446 53.7626L43.6595 50.4348C43.5591 50.3143 43.5122 50.1602 43.5122 50.0129H45.0456L47.3891 52.919C47.6235 53.2069 47.5766 53.6287 47.2887 53.8631Z" fill="#1E1E1E" stroke="black" stroke-width="2" stroke-linecap="round" stroke-linejoin="round"/>
<path d="M54.7682 53.8631C54.6477 53.9635 54.5003 54.0104 54.3463 54.0104C54.1522 54.0104 53.958 53.9233 53.8308 53.7626L51.139 50.4348C51.0386 50.3076 50.9917 50.1602 50.9917 50.0129H52.5251L54.8686 52.919C55.103 53.2069 55.0561 53.6287 54.7682 53.8631Z" fill="#1E1E1E" stroke="black" stroke-width="2" stroke-linecap="round" stroke-linejoin="round"/>
<path d="M24.9448 65.2258L22.5945 68.1319H21.0679C21.0679 67.9845 21.1147 67.8305 21.2152 67.71L23.9002 64.3822C24.1346 64.0942 24.5564 64.0541 24.8444 64.2817C25.1323 64.5161 25.1725 64.9379 24.9448 65.2258Z" fill="#1E1E1E" stroke="black" stroke-width="2" stroke-linecap="round" stroke-linejoin="round"/>
<path d="M21.9785 66.7659L21.2152 67.71C21.1147 67.8305 21.0679 67.9845 21.0679 68.1318H22.5945L23.6994 66.7659H21.9785Z" fill="#1E1E1E" stroke="black" stroke-width="2" stroke-linecap="round" stroke-linejoin="round"/>
<path d="M32.4243 65.2258L30.0807 68.1319H28.5474C28.5474 67.9845 28.5942 67.8305 28.6947 67.71L31.3797 64.3822C31.6141 64.0942 32.0359 64.0541 32.3238 64.2817C32.6118 64.5161 32.6586 64.9379 32.4243 65.2258Z" fill="#1E1E1E" stroke="black" stroke-width="2" stroke-linecap="round" stroke-linejoin="round"/>
<path d="M39.9039 65.2258L37.5604 68.1319H36.0337C36.0337 67.9845 36.0806 67.8305 36.181 67.71L38.8661 64.3822C39.1004 64.0942 39.5223 64.0541 39.8035 64.2817C40.0914 64.5161 40.1383 64.9379 39.9039 65.2258Z" fill="#1E1E1E" stroke="black" stroke-width="2" stroke-linecap="round" stroke-linejoin="round"/>
<path d="M47.3896 65.2258L45.0461 68.1319H43.5127C43.5127 67.9845 43.5596 67.8305 43.66 67.71L46.3451 64.3822C46.5794 64.0942 47.0013 64.0541 47.2892 64.2817C47.5771 64.5161 47.624 64.9379 47.3896 65.2258Z" fill="#1E1E1E" stroke="black" stroke-width="2" stroke-linecap="round" stroke-linejoin="round"/>
<path d="M54.8691 65.2258L52.5255 68.1319H50.9922C50.9922 67.9845 51.0391 67.8372 51.1395 67.71L53.8312 64.3822C54.0589 64.0942 54.4808 64.0541 54.7687 64.2817C55.0566 64.5161 55.1035 64.9379 54.8691 65.2258Z" fill="#1E1E1E" stroke="black" stroke-width="2" stroke-linecap="round" stroke-linejoin="round"/>
<path d="M51.9162 66.7459L51.1395 67.7034C51.0391 67.8306 50.9922 67.9779 50.9922 68.1252H52.5255L54.1125 66.1633C53.4429 66.4914 52.7063 66.699 51.9162 66.7459Z" fill="#1E1E1E" stroke="black" stroke-width="2" stroke-linecap="round" stroke-linejoin="round"/>
<path d="M15.3296 56.5413H61.9999V57.8804H15.3296V56.5413Z" fill="#1E1E1E" stroke="black" stroke-width="2" stroke-linecap="round" stroke-linejoin="round"/>
<path d="M57.3062 56.5413H62V57.8804H57.3062V56.5413Z" fill="#1E1E1E" stroke="black" stroke-width="2" stroke-linecap="round" stroke-linejoin="round"/>
<path d="M15.3296 60.2642H61.9999V61.6033H15.3296V60.2642Z" fill="#1E1E1E" stroke="black" stroke-width="2" stroke-linecap="round" stroke-linejoin="round"/>
<path d="M57.3062 60.2642H62V61.6033H57.3062V60.2642Z" fill="#1E1E1E" stroke="black" stroke-width="2" stroke-linecap="round" stroke-linejoin="round"/>
<path d="M29.458 66.7659L28.6947 67.71C28.5942 67.8305 28.5474 67.9845 28.5474 68.1318H30.074L31.1788 66.7659H29.458Z" fill="#1E1E1E" stroke="black" stroke-width="2" stroke-linecap="round" stroke-linejoin="round"/>
<path d="M36.9443 66.7659L36.181 67.71C36.0806 67.8305 36.0337 67.9845 36.0337 68.1318H37.5604L38.6652 66.7659H36.9443Z" fill="#1E1E1E" stroke="black" stroke-width="2" stroke-linecap="round" stroke-linejoin="round"/>
<path d="M44.4233 66.7659L43.66 67.71C43.5596 67.8305 43.5127 67.9845 43.5127 68.1318H45.0394L46.1442 66.7659H44.4233Z" fill="#1E1E1E" stroke="black" stroke-width="2" stroke-linecap="round" stroke-linejoin="round"/>
</svg>
