<svg width="67" height="67" viewBox="0 0 67 67" fill="none" xmlns="http://www.w3.org/2000/svg">
<g clip-path="url(#clip0_1_9751)">
<path d="M1.19643 32.3037H65.8036C66.4643 32.3037 67 32.8394 67 33.5001V35.893C67 36.5537 66.4643 37.0894 65.8036 37.0894H1.19643C0.535706 37.0894 0 36.5537 0 35.893V33.5001C0 32.8394 0.535706 32.3037 1.19643 32.3037Z" fill="white"/>
<path d="M3.63721 29.9107H63.3628C62.92 17.9914 55.4055 7.48761 44.2679 3.21949V23.9286C44.2679 24.5893 43.7322 25.125 43.0714 25.125C42.4107 25.125 41.875 24.5893 41.875 23.9286V1.19643C41.875 0.535706 41.3393 0 40.6786 0H34.6964V26.3214C34.6964 26.9822 34.1607 27.5179 33.5 27.5179C32.8393 27.5179 32.3036 26.9822 32.3036 26.3214V0H26.3214C25.6607 0 25.125 0.535706 25.125 1.19643V23.9286C25.125 24.5893 24.5893 25.125 23.9286 25.125C23.2679 25.125 22.7322 24.5893 22.7322 23.9286V3.21949C11.5945 7.48761 4.08003 17.9914 3.63721 29.9107Z" fill="white"/>
<path d="M63.4106 56.2319H66.9999V59.8212H63.4106V56.2319Z" fill="white"/>
<path d="M63.4106 52.6431H66.9999V53.8395H63.4106V52.6431Z" fill="white"/>
<path d="M0 53.8394H3.58929V55.0358H0V53.8394Z" fill="white"/>
<path d="M61.0177 51.4462C61.0177 49.4641 59.4105 47.8569 57.4284 47.8569H9.57122C7.58905 47.8569 5.98193 49.4641 5.98193 51.4462V61.0176C5.98602 64.3201 8.66163 66.9957 11.9641 66.9998H19.1426C23.7765 66.9864 28.0656 64.5509 30.4515 60.5783C31.097 59.5104 32.2543 58.8579 33.5021 58.8579C34.75 58.8579 35.9073 59.5104 36.5528 60.5783C38.9381 64.5491 43.2249 66.9846 47.8569 66.9998H55.0355C58.338 66.9957 61.0136 64.3201 61.0177 61.0176V51.4462ZM27.5176 52.6426H11.9641C11.3034 52.6426 10.7676 53.1784 10.7676 53.8391V58.6248C10.7676 59.2855 10.2319 59.8212 9.57122 59.8212C8.9105 59.8212 8.37479 59.2855 8.37479 58.6248V53.8391C8.37479 51.8569 9.98191 50.2498 11.9641 50.2498H27.5176C28.1784 50.2498 28.7141 50.7855 28.7141 51.4462C28.7141 52.1069 28.1784 52.6426 27.5176 52.6426ZM34.6962 52.6426H32.3034C31.6426 52.6426 31.1069 52.1069 31.1069 51.4462C31.1069 50.7855 31.6426 50.2498 32.3034 50.2498H34.6962C35.3569 50.2498 35.8927 50.7855 35.8927 51.4462C35.8927 52.1069 35.3569 52.6426 34.6962 52.6426Z" fill="white"/>
<path d="M0 57.4287H3.58929V61.018H0V57.4287Z" fill="white"/>
</g>
<defs>
<clipPath id="clip0_1_9751">
<rect width="67" height="67" fill="white"/>
</clipPath>
</defs>
</svg>
