<svg width="67" height="68" viewBox="0 0 67 68" fill="none" xmlns="http://www.w3.org/2000/svg">
<path d="M62.9016 42.451V38.1592H43.4075C43.4075 43.7126 38.9718 48.2147 33.4999 48.2147C28.028 48.2147 23.5923 43.7127 23.5923 38.1592H4.09814V42.451L12.5632 43.3608C13.0912 45.5575 13.9461 47.6243 15.0727 49.505L9.71947 56.2249L15.6999 62.2945L22.321 56.8614C24.1739 58.0048 26.2104 58.8725 28.3748 59.4084L29.2712 67.9998H37.7286L38.625 59.4084C40.7894 58.8725 42.8258 58.0048 44.6788 56.8614L51.2999 62.2945L57.2803 56.2249L51.9271 49.505C53.0537 47.6243 53.9086 45.5575 54.4366 43.3608L62.9016 42.451Z" fill="white"/>
<path d="M33.4999 0C29.3126 0 25.9058 3.45764 25.9058 7.70751C25.9058 11.9574 29.3126 15.4149 33.4999 15.4149C37.6873 15.4149 41.0941 11.9574 41.0941 7.70751C41.0941 3.45764 37.6873 0 33.4999 0Z" fill="white"/>
<path d="M41.5855 17.5459H25.4146C21.6918 17.546 18.6631 20.6198 18.6631 24.3982V34.1751H48.337V24.3982C48.337 20.6198 45.3083 17.5459 41.5855 17.5459Z" fill="white"/>
<path d="M17.3894 3.56055C13.6382 3.56055 10.5864 6.658 10.5864 10.4651C10.5864 14.2416 13.5898 17.3179 17.2995 17.3672C18.8358 15.5434 20.9556 14.2417 23.3639 13.7643C23.8918 12.7834 24.1924 11.6593 24.1924 10.4651C24.1924 6.65787 21.1406 3.56055 17.3894 3.56055Z" fill="white"/>
<path d="M10.1463 19.2783C6.81138 19.2783 4.09814 22.0319 4.09814 25.4168V34.1751H14.7371V24.3981C14.7371 22.5474 15.1975 20.8039 16.0069 19.2783H10.1463Z" fill="white"/>
<path d="M49.6106 3.56055C45.8594 3.56055 42.8076 6.658 42.8076 10.4651C42.8076 11.6592 43.1081 12.7834 43.636 13.7643C46.0444 14.2417 48.1642 15.5434 49.7005 17.3672C53.4102 17.3181 56.4136 14.2416 56.4136 10.4651C56.4136 6.65787 53.3618 3.56055 49.6106 3.56055Z" fill="white"/>
<path d="M56.8537 19.2783H50.9932C51.8025 20.8039 52.2629 22.5474 52.2629 24.3981V34.175H62.9019V25.4166C62.9019 22.0319 60.1887 19.2783 56.8537 19.2783Z" fill="white"/>
</svg>
