<svg width="79" height="79" viewBox="0 0 79 79" fill="none" xmlns="http://www.w3.org/2000/svg">
<path d="M43.4419 69.0855C59.7816 69.0855 73.0274 55.8396 73.0274 39.5C73.0274 23.1604 59.7816 9.91449 43.4419 9.91449C27.1023 9.91449 13.8564 23.1604 13.8564 39.5C13.8564 55.8396 27.1023 69.0855 43.4419 69.0855Z" fill="#1E1E1E" stroke="black" stroke-width="2" stroke-linecap="round" stroke-linejoin="round"/>
<path d="M52.7481 11.4155C61.8884 16.4478 68.0899 26.1727 68.0899 37.3512C68.0899 53.6884 54.8416 66.9367 38.5044 66.9367C35.2496 66.9367 32.1212 66.4074 29.1982 65.4357C33.4247 67.7662 38.2832 69.0934 43.4419 69.0934C59.7791 69.0934 73.0274 55.8451 73.0274 39.5079C73.0274 26.4255 64.527 15.326 52.7481 11.4234V11.4155Z" fill="black"/>
<path d="M44.2951 9.92239V13.9988C44.2951 14.4728 43.9159 14.8441 43.4498 14.8441C42.9837 14.8441 42.6045 14.4728 42.6045 13.9988V9.92239C42.881 9.91449 43.1733 9.91449 43.4498 9.91449C43.7263 9.91449 44.0186 9.91449 44.2951 9.92239Z" fill="#1E1E1E" stroke="black" stroke-width="2" stroke-linecap="round" stroke-linejoin="round"/>
<path d="M58.9656 14.3148L56.9274 17.8461C56.7773 18.1147 56.485 18.2727 56.2006 18.2727C56.0584 18.2727 55.9004 18.2411 55.774 18.1542C55.3632 17.9251 55.221 17.4037 55.458 17.0008L57.4962 13.4695C57.9939 13.7302 58.4916 14.0225 58.9656 14.3148Z" fill="#1E1E1E" stroke="black" stroke-width="2" stroke-linecap="round" stroke-linejoin="round"/>
<path d="M69.4807 25.4538L65.9494 27.492C65.8151 27.571 65.6729 27.6026 65.5228 27.6026C65.2226 27.6026 64.9461 27.4525 64.7802 27.176C64.5511 26.7652 64.6854 26.2517 65.0962 26.0147L68.6275 23.9844C68.9356 24.4584 69.2121 24.9561 69.4728 25.4538H69.4807Z" fill="#1E1E1E" stroke="black" stroke-width="2" stroke-linecap="round" stroke-linejoin="round"/>
<path d="M66.3207 27.2708L65.9494 27.492C65.8151 27.571 65.6729 27.6026 65.5228 27.6026C65.2226 27.6026 64.9461 27.4525 64.7802 27.176C64.5511 26.7652 64.6854 26.2517 65.0962 26.0147L65.6808 25.675C65.9099 26.2043 66.1232 26.7257 66.3207 27.2708Z" fill="#1E1E1E" stroke="black" stroke-width="2" stroke-linecap="round" stroke-linejoin="round"/>
<path d="M73.0278 39.5C73.0278 39.7765 73.0278 40.0688 73.0199 40.3453H68.9356C68.4695 40.3453 68.0903 39.9661 68.0903 39.5C68.0903 39.0339 68.4695 38.6547 68.9356 38.6547H73.0199C73.0278 38.9312 73.0278 39.2235 73.0278 39.5Z" fill="#1E1E1E" stroke="black" stroke-width="2" stroke-linecap="round" stroke-linejoin="round"/>
<path d="M69.4807 53.5462C69.22 54.0439 68.9277 54.5416 68.6196 55.0235L65.0962 52.9853C64.6854 52.7483 64.5511 52.2269 64.7802 51.824C65.0172 51.4132 65.5386 51.2789 65.9415 51.5159L69.4728 53.5462H69.4807Z" fill="#1E1E1E" stroke="black" stroke-width="2" stroke-linecap="round" stroke-linejoin="round"/>
<path d="M21.78 52.9853L18.2566 55.0235C17.9485 54.5416 17.6641 54.0439 17.3955 53.5462L20.9268 51.5159C21.3376 51.2789 21.8511 51.4132 22.0881 51.824C22.3172 52.2348 22.1829 52.7483 21.7721 52.9853H21.78Z" fill="#1E1E1E" stroke="black" stroke-width="2" stroke-linecap="round" stroke-linejoin="round"/>
<path d="M18.7939 39.5C18.7939 39.9661 18.4147 40.3453 17.9486 40.3453H13.8643C13.8564 40.0688 13.8564 39.7765 13.8564 39.5C13.8564 39.2235 13.8564 38.9312 13.8643 38.6547H17.9486C18.4147 38.6547 18.7939 39.026 18.7939 39.5Z" fill="#1E1E1E" stroke="black" stroke-width="2" stroke-linecap="round" stroke-linejoin="round"/>
<path d="M22.096 27.176C21.938 27.4446 21.6536 27.6026 21.3534 27.6026C21.2112 27.6026 21.0611 27.571 20.9268 27.492L17.3955 25.4538C17.6562 24.9561 17.9406 24.4584 18.2408 23.9844L21.7721 26.0147C22.1829 26.2517 22.3172 26.7731 22.0881 27.176H22.096Z" fill="#1E1E1E" stroke="black" stroke-width="2" stroke-linecap="round" stroke-linejoin="round"/>
<path d="M31.1179 18.1463C30.9915 18.2332 30.8414 18.2648 30.6913 18.2648C30.399 18.2648 30.1146 18.1147 29.9645 17.8382L27.9263 14.3069C28.4003 14.0067 28.898 13.7223 29.3957 13.4616L31.4339 16.9929C31.6709 17.4037 31.5287 17.9172 31.1179 18.1463Z" fill="#1E1E1E" stroke="black" stroke-width="2" stroke-linecap="round" stroke-linejoin="round"/>
<path d="M44.2951 9.92239V13.9988C44.2951 14.4728 43.9159 14.8441 43.4498 14.8441C42.9837 14.8441 42.6045 14.4728 42.6045 13.9988V9.92239C42.881 9.91449 43.1733 9.91449 43.4498 9.91449C43.7263 9.91449 44.0186 9.91449 44.2951 9.92239Z" fill="#1E1E1E" stroke="black" stroke-width="2" stroke-linecap="round" stroke-linejoin="round"/>
<path d="M43.442 58.8155C54.1096 58.8155 62.7575 50.1677 62.7575 39.5C62.7575 28.8324 54.1096 20.1845 43.442 20.1845C32.7743 20.1845 24.1265 28.8324 24.1265 39.5C24.1265 50.1677 32.7743 58.8155 43.442 58.8155Z" fill="#5AC5C9" stroke="black" stroke-width="2" stroke-miterlimit="10"/>
<path d="M43.4423 53.1591C50.986 53.1591 57.1014 47.0437 57.1014 39.5C57.1014 31.9563 50.986 25.8409 43.4423 25.8409C35.8986 25.8409 29.7832 31.9563 29.7832 39.5C29.7832 47.0437 35.8986 53.1591 43.4423 53.1591Z" fill="#1E1E1E" stroke="black" stroke-width="2" stroke-linecap="round" stroke-linejoin="round"/>
<path d="M46.3969 45.9306C45.6543 45.0695 44.5799 44.5718 43.4423 44.5718C42.3047 44.5718 41.2303 45.0695 40.4877 45.9306L36.4429 50.6469C35.8346 50.2598 35.2658 49.8411 34.7365 49.375L37.9518 44.1057C38.5443 43.134 38.6865 41.9569 38.331 40.8746C37.9755 39.7923 37.1776 38.9233 36.1269 38.4809L30.7075 36.2215C30.8892 35.5105 31.1341 34.8153 31.4264 34.1596L37.0986 35.5105C37.3988 35.5816 37.699 35.6132 38.0071 35.6132C40.0216 35.6132 41.7201 34.0411 41.886 32.0345L42.3442 26.4097C42.6918 26.3781 43.0631 26.3702 43.4502 26.3702C43.8373 26.3702 44.2086 26.386 44.5562 26.4097L45.0144 32.0345C45.1803 34.0411 46.8788 35.6132 48.8933 35.6132C49.1935 35.6132 49.5016 35.5816 49.8018 35.5105L55.474 34.1596C55.7742 34.8232 56.0112 35.5105 56.2008 36.2215L50.7814 38.4809C49.7307 38.9154 48.9249 39.7923 48.5773 40.8746C48.2218 41.9569 48.364 43.134 48.9565 44.1057L52.1718 49.375C51.6425 49.8411 51.0737 50.2598 50.4654 50.6469L46.4206 45.9306H46.3969Z" fill="#5AC5C9"/>
<path d="M43.4422 27.1523C43.5686 27.1523 43.695 27.1523 43.8135 27.1523L44.2164 32.0898C44.4139 34.5072 46.46 36.3953 48.8853 36.3953C49.2487 36.3953 49.6121 36.3558 49.9755 36.2689L54.992 35.076C55.0789 35.2972 55.1579 35.5263 55.229 35.7554L50.4574 37.7462C49.1934 38.2755 48.2296 39.3183 47.803 40.6218C47.3764 41.9253 47.5502 43.3394 48.2612 44.5086L48.6246 45.1011L51.121 49.1933C50.9472 49.3276 50.7734 49.4619 50.5917 49.5883L47.0051 45.4013C46.1124 44.3585 44.8168 43.766 43.4501 43.766C42.0834 43.766 40.7878 44.3585 39.8951 45.4013L36.3085 49.5883C36.1268 49.4619 35.953 49.3276 35.7792 49.1933L38.639 44.5007C39.35 43.3315 39.5159 41.9174 39.0972 40.6139C38.6706 39.3104 37.7068 38.2597 36.4428 37.7383L31.6712 35.7475C31.7423 35.5184 31.8213 35.2893 31.9082 35.0681L36.9247 36.261C37.2802 36.3479 37.6515 36.3874 38.0149 36.3874C40.4323 36.3874 42.4863 34.4914 42.6838 32.0819L43.0867 27.1444C43.2131 27.1444 43.3316 27.1444 43.458 27.1444M43.4422 25.5723C42.8181 25.5723 42.2019 25.6118 41.6015 25.6908L41.0959 31.9634C40.9616 33.6145 39.5791 34.8153 38.007 34.8153C37.77 34.8153 37.5251 34.7916 37.2881 34.7284L30.9997 33.2353C30.4467 34.3097 30.0438 35.471 29.791 36.6876L35.8266 39.1998C37.5804 39.9345 38.2756 42.0596 37.2802 43.687L33.7252 49.5093C34.5863 50.3467 35.5501 51.0656 36.6087 51.6581L41.088 46.4362C41.7042 45.7173 42.5732 45.3539 43.4422 45.3539C44.3112 45.3539 45.1802 45.7173 45.7964 46.4362L50.2757 51.6581C51.3264 51.0577 52.2981 50.3467 53.1592 49.5093L49.6042 43.687C48.6088 42.0596 49.304 39.9345 51.0578 39.1998L57.0934 36.6876C56.8406 35.471 56.4377 34.3097 55.8847 33.2353L49.5963 34.7284C49.3514 34.7837 49.1144 34.8153 48.8774 34.8153C47.3053 34.8153 45.9228 33.6066 45.7885 31.9634L45.2829 25.6908C44.6825 25.6039 44.0663 25.5723 43.4422 25.5723Z" fill="black"/>
<path d="M22.7677 52.6298C20.3108 48.5534 18.8888 43.7739 18.8888 38.6705C18.8888 33.5671 20.3029 28.7876 22.7677 24.7112V19.908H12.6873C9.55102 25.4538 7.76562 31.8528 7.76562 38.6784C7.76562 45.504 9.55102 51.903 12.6873 57.4488H22.7677V52.6456V52.6298Z" fill="#5AC5C9" stroke="black" stroke-width="3" stroke-linecap="round" stroke-linejoin="round"/>
<path d="M13.6037 47.5659C13.106 47.5659 12.6557 47.2183 12.553 46.7127C12.0079 44.082 11.7314 41.3802 11.7314 38.6784C11.7314 35.9766 12.0079 33.2669 12.553 30.6362C12.6715 30.0595 13.2403 29.6803 13.8249 29.8067C14.4016 29.9252 14.7808 30.494 14.6544 31.0786C14.1409 33.5592 13.8723 36.1188 13.8723 38.6863C13.8723 41.2538 14.133 43.8055 14.6544 46.2861C14.7729 46.8628 14.4016 47.4316 13.8249 47.558C13.7538 47.5738 13.6748 47.5817 13.6037 47.5817V47.5659Z" fill="black"/>
</svg>
