<svg width="85" height="86" viewBox="0 0 85 86" fill="none" xmlns="http://www.w3.org/2000/svg">
<g clip-path="url(#clip0_1_9556)">
<path d="M44.3201 62.7501C44.3201 62.7501 44.2201 62.7701 44.1701 62.7901L18.7901 77.4101C18.1301 77.7901 17.5101 77.8601 17.1001 77.6001C17.0901 77.6001 17.0801 77.5901 17.0601 77.5801C17.0501 77.5801 17.0401 77.5701 17.0201 77.5501C17.0101 77.5501 16.9601 77.5101 16.9501 77.4901L16.9201 77.4701H16.9101C16.9101 77.4701 16.8901 77.4401 16.8701 77.4301L16.8401 77.3901C16.7701 77.3101 16.7101 77.2001 16.6501 77.0801C16.6301 77.0201 16.6101 76.9801 16.5901 76.9101C16.5701 76.8401 16.5501 76.7601 16.5201 76.6601C16.5101 76.5701 16.5001 76.4801 16.4901 76.4001C16.4801 76.3001 16.4801 76.2101 16.4801 76.1101L16.3501 32.9301C16.3501 32.7701 16.3601 32.6201 16.3701 32.4501C16.5201 31.3101 17.1401 30.0001 18.0301 29.0501C18.1101 28.9601 18.2001 28.8801 18.2901 28.7901C18.5301 28.5701 18.7901 28.3601 19.0701 28.2001L21.4801 26.8101V27.7501C21.4801 28.1601 21.6001 28.5101 21.8201 28.7601C21.8301 28.7701 21.8301 28.7801 21.8401 28.7901L21.8701 28.8201C21.9401 28.8901 22.0001 28.9501 22.0901 29.0101L24.0101 30.1301C24.1001 30.1701 24.2001 30.2201 24.3001 30.2401C24.3301 30.2401 24.3801 30.2401 24.4201 30.2501C24.4801 30.2601 24.5201 30.2701 24.5901 30.2701H24.7101C24.8201 30.2601 24.9301 30.2401 25.0501 30.2001H25.0601C25.1901 30.1601 25.3201 30.1001 25.4501 30.0201L43.5501 19.5901C43.5501 19.5901 43.5801 19.5701 43.6101 19.5601C44.4401 19.0401 45.1001 17.9701 45.1901 16.9801C45.1901 16.9001 45.2001 16.8201 45.2001 16.7401V13.1201L48.5701 11.1801C49.0201 10.9201 49.4401 10.8001 49.8301 10.8401C49.8501 10.8401 49.8901 10.8401 49.9101 10.8501C49.9301 10.8501 49.9501 10.8601 49.9801 10.8601C50.0001 10.8701 50.0401 10.8801 50.0801 10.8901C50.1101 10.9001 50.1501 10.9101 50.1801 10.9301C50.1801 10.9301 50.2501 10.9601 50.2601 10.9601C50.6601 11.2001 50.9101 11.7701 50.9101 12.5001L51.0101 50.2701C47.8301 53.6901 45.3601 58.2601 44.3401 62.7201L44.3201 62.7501Z" fill="#5AC5C9"/>
<path d="M60.6499 76.22C57.7299 77.91 54.9799 78.24 52.9099 77.13C52.8899 77.12 52.8499 77.12 52.8299 77.11C52.8099 77.09 52.7899 77.05 52.7499 77.04H52.7399C50.6899 75.84 49.5499 73.31 49.5499 69.91C49.5299 62.64 54.6599 53.74 60.9899 50.09C63.2299 48.8 65.3599 48.31 67.1599 48.63H67.1699C67.5399 48.7 67.8999 48.81 68.2299 48.94C68.2499 48.95 68.2599 48.95 68.2899 48.96C68.4499 49.03 68.5899 49.09 68.7399 49.17C68.7399 49.17 68.7499 49.18 68.7599 49.18C70.8599 50.33 72.0799 52.9 72.0899 56.4C72.1099 63.67 66.9799 72.56 60.6499 76.21V76.22Z" fill="#5AC5C9"/>
<path d="M37.0502 14.7299V14.7099C37.0302 14.5399 36.9802 14.3999 36.9302 14.2599C36.9302 14.2599 36.9302 14.2499 36.9202 14.2399C36.7602 13.8499 36.5202 13.5599 36.1902 13.3699C35.6902 13.0899 35.0802 13.0899 34.4302 13.3699C34.4202 13.3699 34.4102 13.3799 34.4002 13.3799C34.3102 13.4099 34.2202 13.4599 34.1402 13.5099C34.1302 13.5199 34.1102 13.5199 34.0802 13.5299C33.9202 13.6199 33.7802 13.7299 33.6302 13.8399C33.5902 13.8699 33.5402 13.9099 33.5002 13.9399C33.3902 14.0399 33.2802 14.1399 33.1602 14.2499C33.0902 14.3199 33.0302 14.3799 32.9602 14.4599C32.9002 14.5299 32.8402 14.6099 32.7802 14.6699C32.6802 14.7899 32.5802 14.9199 32.5002 15.0499C32.4402 15.0799 32.4102 15.1399 32.3802 15.1999C32.2802 15.3499 32.1902 15.4999 32.1102 15.6599C32.0902 15.6999 32.0702 15.7499 32.0402 15.7899C32.0302 15.8099 32.0202 15.8299 32.0102 15.8599C31.9402 15.9899 31.8902 16.1199 31.8302 16.2599C31.8102 16.3299 31.7702 16.4099 31.7502 16.4699C31.7202 16.5899 31.6702 16.7199 31.6402 16.8399C31.6202 16.9399 31.6002 17.0299 31.5702 17.1199C31.5602 17.2199 31.5302 17.3199 31.5102 17.4199C31.4902 17.6199 31.4702 17.8099 31.4702 17.9999V18.0299C31.4702 18.1499 31.4802 18.2699 31.4902 18.3899V18.4499C31.5002 18.5599 31.5202 18.6699 31.5602 18.7699C31.6602 19.1299 31.8202 19.4199 32.0402 19.6399C32.0502 19.6499 32.0602 19.6499 32.0702 19.6599C32.1302 19.7199 32.1902 19.7599 32.2602 19.8199C32.2802 19.8299 32.3002 19.8499 32.3302 19.8599C32.3402 19.8599 32.3502 19.8699 32.3702 19.8799C32.3802 19.8899 32.4102 19.8899 32.4302 19.8999C32.5202 19.9399 32.6102 19.9799 32.7102 20.0099C32.7402 20.0199 32.7802 20.0299 32.8102 20.0399C32.8302 20.0399 32.8502 20.0499 32.8902 20.0599C32.9902 20.0699 33.0902 20.0799 33.1902 20.0799H33.2002C33.4002 20.0799 33.6002 20.0499 33.8202 19.9799C33.9102 19.9599 34.0002 19.9199 34.0902 19.8799C34.1002 19.8699 34.1202 19.8699 34.1502 19.8599C34.1802 19.8499 34.2302 19.8299 34.2602 19.7999C34.3302 19.7699 34.4102 19.7299 34.4702 19.6899C34.4802 19.6899 34.4902 19.6799 34.5002 19.6799C34.6502 19.5899 34.7802 19.4899 34.9302 19.3899C34.9902 19.3499 35.0402 19.2899 35.1102 19.2399C35.1902 19.1699 35.2802 19.0899 35.3602 19.0199C35.6202 18.7599 35.8602 18.4699 36.0802 18.1699C36.1402 18.0899 36.1902 17.9999 36.2502 17.9199C36.2902 17.8399 36.3502 17.7499 36.4002 17.6699C36.4802 17.5099 36.5702 17.3699 36.6202 17.2099C36.6502 17.1399 36.6802 17.0899 36.7002 17.0199C36.7602 16.8899 36.8002 16.7499 36.8502 16.6199C36.8602 16.5599 36.8802 16.5199 36.9102 16.4599C36.9502 16.2699 37.0002 16.0899 37.0302 15.9099C37.0302 15.8699 37.0402 15.8299 37.0402 15.7899C37.0602 15.5999 37.0802 15.3999 37.0802 15.2199C37.1002 15.0199 37.0802 14.8499 37.0602 14.6799L37.0502 14.7299Z" fill="black"/>
<path d="M26.3102 34.8599C26.3102 34.4599 26.1402 34.1299 25.8602 33.9699C25.5802 33.8099 25.2102 33.8199 24.8602 34.0299L19.4402 37.1699C18.8502 37.5199 18.4102 38.2799 18.4102 38.9599V45.1999C18.4202 45.5999 18.5902 45.9299 18.8702 46.0899C19.0002 46.1599 19.1402 46.1999 19.2802 46.1999C19.4702 46.1999 19.6702 46.1399 19.8602 46.0299L25.3002 42.8899C25.8902 42.5499 26.3302 41.7799 26.3302 41.0999L26.3102 34.8599ZM24.6402 38.5299L22.0802 41.9999C22.0002 42.1099 21.8802 42.1699 21.7602 42.1699C21.6802 42.1699 21.5902 42.1499 21.5202 42.0899L20.1902 41.1399C20.0002 41.0099 19.9702 40.7499 20.1002 40.5699C20.2202 40.3899 20.4802 40.3499 20.6702 40.4799L21.6802 41.1999L24.0002 38.0399C24.1302 37.8599 24.3902 37.8199 24.5702 37.9499C24.7302 38.0999 24.7702 38.3499 24.6402 38.5299Z" fill="black"/>
<path d="M28.3202 32.9301C28.3902 32.9301 28.4502 32.9101 28.5202 32.8701L43.0002 24.5101C43.1902 24.4001 43.2602 24.1501 43.1502 23.9501C43.0402 23.7601 42.7902 23.6901 42.5902 23.8001L28.1202 32.1501C27.9302 32.2601 27.8602 32.5101 27.9702 32.7101C28.0502 32.8401 28.1802 32.9201 28.3202 32.9201V32.9301Z" fill="black"/>
<path d="M46.05 22.68C46.12 22.68 46.18 22.66 46.25 22.62L48.73 21.2C48.92 21.09 48.99 20.84 48.88 20.64C48.77 20.45 48.52 20.38 48.32 20.49L45.84 21.91C45.65 22.02 45.58 22.27 45.69 22.47C45.78 22.6 45.91 22.67 46.05 22.67V22.68Z" fill="black"/>
<path d="M31.04 34.5501L28.13 36.2301C27.94 36.3401 27.87 36.5901 27.98 36.7901C28.06 36.9201 28.19 36.9901 28.34 36.9901C28.41 36.9901 28.47 36.9701 28.54 36.9301L31.45 35.2501C31.64 35.1401 31.71 34.8901 31.6 34.6901C31.49 34.5001 31.23 34.4301 31.04 34.5401V34.5501Z" fill="black"/>
<path d="M48.33 24.5701L34.42 32.5901C34.23 32.7001 34.16 32.9501 34.27 33.1501C34.35 33.2801 34.48 33.3501 34.63 33.3501C34.7 33.3501 34.76 33.3301 34.83 33.2901L48.74 25.2701C48.93 25.1601 49 24.9101 48.89 24.7101C48.78 24.5201 48.52 24.4501 48.33 24.5601V24.5701Z" fill="black"/>
<path d="M27.9903 40.8601C28.0703 40.9901 28.2003 41.0601 28.3503 41.0601C28.4203 41.0601 28.4803 41.0401 28.5503 41.0001L38.5103 35.2501C38.7003 35.1401 38.7703 34.8901 38.6603 34.6901C38.5503 34.5001 38.3003 34.4301 38.1003 34.5401L28.1403 40.2901C27.9503 40.4101 27.8803 40.6601 27.9903 40.8501V40.8601Z" fill="black"/>
<path d="M40.4799 34.12L42.17 33.15C42.36 33.04 42.4299 32.79 42.3199 32.59C42.2099 32.4 41.96 32.33 41.76 32.44L40.0699 33.41C39.8799 33.52 39.81 33.77 39.92 33.97C40 34.1 40.13 34.17 40.28 34.17C40.35 34.17 40.4099 34.16 40.4799 34.11V34.12Z" fill="black"/>
<path d="M26.3099 47.95C26.3099 47.55 26.1399 47.23 25.8599 47.06C25.7399 46.98 25.5899 46.95 25.4499 46.95C25.2599 46.95 25.0599 47.0099 24.8699 47.1199L19.4499 50.2599C18.8599 50.5999 18.4199 51.3699 18.4199 52.0499V58.2799C18.4299 58.6799 18.5999 59.0099 18.8799 59.1699C19.0099 59.2399 19.1499 59.2799 19.2899 59.2799C19.4799 59.2799 19.6799 59.22 19.8699 59.11L25.3099 55.97C25.8999 55.62 26.3399 54.86 26.3399 54.18L26.3199 47.95H26.3099ZM24.6399 51.63L22.0799 55.0999C21.9999 55.2099 21.8799 55.27 21.7599 55.27C21.6799 55.27 21.5899 55.2499 21.5199 55.1899L20.1899 54.24C19.9999 54.11 19.9699 53.8499 20.0999 53.6699C20.2299 53.4799 20.4799 53.45 20.6699 53.57L21.6799 54.29L23.9799 51.1399C24.1099 50.9499 24.3699 50.9199 24.5499 51.0499C24.7299 51.1799 24.7699 51.44 24.6399 51.63Z" fill="black"/>
<path d="M28.3202 46.0099C28.3902 46.0099 28.4502 45.9899 28.5202 45.9499L43.0002 37.5899C43.1902 37.4799 43.2602 37.2299 43.1502 37.0299C43.0402 36.8399 42.7902 36.7699 42.5902 36.8799L28.1202 45.2399C27.9302 45.3499 27.8602 45.5999 27.9702 45.7999C28.0502 45.9199 28.1802 45.9999 28.3202 45.9999V46.0099Z" fill="black"/>
<path d="M46.2602 35.7199L48.7402 34.2999C48.9302 34.1899 49.0002 33.9399 48.8902 33.7399C48.7802 33.5499 48.5302 33.4799 48.3302 33.5899L45.8502 35.0099C45.6602 35.1199 45.5902 35.3699 45.7002 35.5699C45.7802 35.6999 45.9102 35.7699 46.0602 35.7699C46.1302 35.7699 46.1902 35.7599 46.2602 35.7099V35.7199Z" fill="black"/>
<path d="M31.04 47.6399L28.13 49.3199C27.94 49.4299 27.87 49.6799 27.98 49.8799C28.06 50.0099 28.19 50.0799 28.34 50.0799C28.41 50.0799 28.47 50.0599 28.54 50.0199L31.45 48.3399C31.64 48.2299 31.71 47.9799 31.6 47.7799C31.49 47.5899 31.23 47.5199 31.04 47.6299V47.6399Z" fill="black"/>
<path d="M48.33 37.6499L34.42 45.6699C34.23 45.7799 34.16 46.0299 34.27 46.2299C34.35 46.3599 34.48 46.4299 34.63 46.4299C34.7 46.4299 34.76 46.4099 34.83 46.3699L48.74 38.3499C48.93 38.2399 49 37.9899 48.89 37.7899C48.78 37.5999 48.52 37.5299 48.33 37.6399V37.6499Z" fill="black"/>
<path d="M27.9903 53.9599C28.0703 54.0899 28.2003 54.1599 28.3503 54.1599C28.4203 54.1599 28.4803 54.1399 28.5503 54.0999L38.5103 48.3499C38.7003 48.2399 38.7703 47.9899 38.6603 47.7899C38.5503 47.5999 38.3003 47.5299 38.1003 47.6399L28.1403 53.3899C27.9503 53.4999 27.8803 53.7499 27.9903 53.9499V53.9599Z" fill="black"/>
<path d="M40.4799 47.2201L42.17 46.2501C42.36 46.1401 42.4299 45.8901 42.3199 45.6901C42.2099 45.5001 41.96 45.4301 41.76 45.5401L40.0699 46.5101C39.8799 46.6201 39.81 46.8701 39.92 47.0701C40 47.2001 40.13 47.2701 40.28 47.2701C40.35 47.2601 40.4099 47.2501 40.4799 47.2101V47.2201Z" fill="black"/>
<path d="M26.3099 61.04C26.3099 60.64 26.1399 60.31 25.8599 60.15C25.7399 60.08 25.5899 60.04 25.4499 60.04C25.2599 60.04 25.0699 60.1 24.8699 60.21L19.4499 63.35C18.8599 63.7 18.4199 64.46 18.4199 65.14V71.38C18.4299 71.78 18.5999 72.11 18.8799 72.27C19.0099 72.34 19.1499 72.38 19.2899 72.38C19.4799 72.38 19.6799 72.32 19.8699 72.21L25.3099 69.07C25.8999 68.73 26.3399 67.96 26.3399 67.29L26.3199 61.04H26.3099ZM24.6399 64.72L22.0799 68.19C21.9999 68.3 21.8799 68.36 21.7599 68.36C21.6799 68.36 21.5899 68.34 21.5199 68.28L20.1899 67.33C19.9999 67.2 19.9699 66.94 20.0999 66.76C20.2299 66.58 20.4799 66.54 20.6699 66.67L21.6799 67.39L23.9999 64.23C24.1299 64.05 24.3899 64.02 24.5699 64.14C24.7299 64.29 24.7699 64.53 24.6399 64.72Z" fill="black"/>
<path d="M28.3202 59.1C28.3902 59.1 28.4502 59.08 28.5202 59.04L43.0002 50.68C43.1902 50.57 43.2602 50.32 43.1502 50.12C43.0402 49.93 42.7902 49.86 42.5902 49.97L28.1202 58.33C27.9302 58.44 27.8602 58.69 27.9702 58.89C28.0502 59.01 28.1802 59.09 28.3202 59.09V59.1Z" fill="black"/>
<path d="M46.2602 48.82L48.7402 47.4C48.9302 47.29 49.0002 47.04 48.8902 46.84C48.7802 46.65 48.5302 46.58 48.3302 46.69L45.8502 48.11C45.6602 48.22 45.5902 48.47 45.7002 48.67C45.7802 48.8 45.9102 48.87 46.0602 48.87C46.1302 48.87 46.1902 48.85 46.2602 48.81V48.82Z" fill="black"/>
<path d="M28.3302 63.18C28.4002 63.18 28.4602 63.16 28.5302 63.12L31.4402 61.44C31.6302 61.33 31.7002 61.08 31.5902 60.88C31.4802 60.69 31.2302 60.62 31.0302 60.73L28.1202 62.41C27.9302 62.52 27.8602 62.77 27.9702 62.97C28.0602 63.09 28.1902 63.17 28.3302 63.17V63.18Z" fill="black"/>
<path d="M48.33 50.76L34.42 58.78C34.23 58.89 34.16 59.14 34.27 59.34C34.35 59.47 34.48 59.54 34.63 59.54C34.7 59.54 34.76 59.52 34.83 59.48L48.74 51.46C48.93 51.35 49 51.1 48.89 50.9C48.78 50.71 48.52 50.64 48.33 50.75V50.76Z" fill="black"/>
<path d="M38.1003 60.73L28.1403 66.48C27.9503 66.59 27.8803 66.84 27.9903 67.04C28.0703 67.17 28.2003 67.24 28.3503 67.24C28.4203 67.24 28.4803 67.22 28.5503 67.18L38.5103 61.43C38.7003 61.32 38.7703 61.07 38.6603 60.87C38.5503 60.68 38.3003 60.61 38.1003 60.72V60.73Z" fill="black"/>
<path d="M41.7702 58.6199L40.0802 59.5899C39.8902 59.6999 39.8202 59.9499 39.9302 60.1499C40.0102 60.2799 40.1402 60.3499 40.2902 60.3499C40.3602 60.3499 40.4202 60.3299 40.4902 60.2899L42.1802 59.3199C42.3702 59.2099 42.4402 58.9599 42.3302 58.7599C42.2102 58.5699 41.9602 58.4999 41.7702 58.6099V58.6199Z" fill="black"/>
<path d="M69.3101 48.56H69.3001L64.3901 45.7C62.0401 44.33 58.9401 44.62 55.6601 46.51C54.3201 47.28 53.0301 48.29 51.8301 49.47L51.7201 12.53C51.7201 11.48 51.3401 10.68 50.6801 10.3C50.6701 10.29 50.6501 10.28 50.6201 10.27L47.1601 8.25998C46.4701 7.85998 45.5801 7.91998 44.6701 8.45998L42.4101 9.75998C42.0501 9.64998 41.6401 9.71998 41.2101 9.95998L38.2601 11.65C38.0601 11.4 37.8301 11.2 37.5701 11.04C37.5701 11.04 37.5634 11.0333 37.5501 11.02L35.6301 9.88998C34.6801 9.32998 33.4401 9.43998 32.1401 10.19C29.7201 11.59 27.7401 14.94 27.6301 17.77L23.0901 20.38C22.6601 20.63 22.2801 21.04 21.9801 21.51L15.1301 25.45C13.4001 26.47 11.9901 28.9 12.0001 30.9L12.1201 74.08C12.1201 75.12 12.5001 75.92 13.1701 76.31L16.6201 78.32C16.6201 78.32 16.6301 78.32 16.6301 78.33H16.6501C16.6501 78.33 16.6801 78.36 16.6901 78.36H16.7101C16.9901 78.52 17.3001 78.6 17.6401 78.6C18.1101 78.6 18.6401 78.44 19.1601 78.14L44.0701 63.78C43.8701 64.89 43.7701 65.99 43.7701 67.05C43.7801 70.76 45.0701 73.55 47.3901 74.89L52.2901 77.74H52.3001C52.3001 77.74 52.3601 77.75 52.3801 77.76C52.4101 77.79 52.4501 77.82 52.4801 77.84C53.4101 78.33 54.4501 78.59 55.5701 78.59C57.2501 78.59 59.1101 78.03 61.0201 76.93C67.5801 73.14 72.8901 63.93 72.8801 56.4C72.8801 52.67 71.5701 49.88 69.2901 48.56H69.3101ZM41.6101 10.66C41.8601 10.51 42.0901 10.47 42.2301 10.56L43.1201 11.08L38.9701 13.47C38.9701 13.47 38.9701 13.43 38.9601 13.39C38.9401 13.26 38.9201 13.12 38.8801 12.99C38.8801 12.95 38.8601 12.91 38.8501 12.87C38.8301 12.75 38.7801 12.62 38.7401 12.51C38.7401 12.5 38.7301 12.48 38.7301 12.47C38.7301 12.46 38.7301 12.45 38.7201 12.44L38.6901 12.37L41.6301 10.68L41.6101 10.66ZM35.7201 11.53C35.7201 11.53 35.8001 11.52 35.8401 11.51C35.9401 11.5 36.0401 11.49 36.1301 11.49H36.2101C36.3701 11.49 36.5101 11.5 36.6601 11.55C36.6701 11.55 36.6901 11.55 36.7201 11.56C36.8701 11.6 37.0001 11.65 37.1201 11.73C37.3901 11.89 37.6001 12.11 37.7701 12.4C37.8301 12.49 37.8701 12.58 37.9201 12.67C37.9301 12.69 37.9401 12.73 37.9501 12.76C38.0201 12.95 38.0801 13.15 38.1201 13.37C38.1201 13.39 38.1201 13.41 38.1301 13.44C38.1601 13.65 38.1901 13.89 38.1901 14.13C38.1901 14.29 38.2701 14.42 38.3901 14.5C38.5101 14.57 38.6701 14.57 38.7901 14.5L43.5101 11.78C43.5101 11.78 43.5201 11.78 43.5201 11.77C43.5801 11.74 43.6301 11.71 43.6901 11.69H43.7001C43.7001 11.69 43.8001 11.66 43.8501 11.65H44.0301C44.0301 11.65 44.0901 11.66 44.1201 11.67C44.2501 11.74 44.3301 11.91 44.3601 12.15C44.3601 12.18 44.3701 12.21 44.3701 12.25V16.77C44.3801 16.84 44.3701 16.92 44.3701 16.97C44.2801 17.7 43.7601 18.55 43.1501 18.9L41.4401 19.9L25.0601 29.34C24.8001 29.49 24.5801 29.53 24.4301 29.44C24.3401 29.4 24.2701 29.27 24.2401 29.12C24.2301 29.05 24.2201 28.96 24.2201 28.87V24.35C24.2101 23.77 24.5301 23.07 24.9701 22.6C25.1201 22.44 25.2801 22.31 25.4401 22.21L28.3001 20.57L30.1701 19.49C30.1701 19.49 30.2301 19.43 30.2601 19.4C30.2801 19.38 30.3001 19.37 30.3301 19.33C30.3601 19.27 30.3901 19.2 30.3901 19.13C30.3901 18.73 30.4301 18.32 30.5101 17.91C30.9601 15.6 32.5601 13.15 34.4901 12.04C34.6501 11.95 34.7901 11.87 34.9301 11.82C34.9501 11.82 34.9701 11.81 35.0001 11.8C35.1101 11.76 35.2201 11.71 35.3501 11.67C35.3801 11.66 35.4301 11.65 35.4701 11.64C35.5601 11.61 35.6601 11.58 35.7501 11.56L35.7201 11.53ZM23.5101 21.09L28.2401 18.37C28.3701 18.3 28.4401 18.17 28.4401 18.01C28.4401 15.4 30.2701 12.22 32.5401 10.92C33.1601 10.56 33.7501 10.38 34.2701 10.38C34.6201 10.38 34.9301 10.46 35.2101 10.62L35.4601 10.77C35.3301 10.79 35.1801 10.84 35.0501 10.88C35.0301 10.89 35.0101 10.9 34.9701 10.9C34.8401 10.94 34.7101 11 34.5801 11.06C34.5701 11.07 34.5501 11.07 34.5401 11.08C34.3801 11.15 34.2301 11.23 34.0801 11.32C32.0601 12.49 30.3601 15 29.7801 17.43C29.6701 17.92 29.5901 18.43 29.5801 18.9L25.0501 21.51C25.0501 21.51 25.0401 21.51 25.0401 21.52C24.8201 21.65 24.5901 21.82 24.4001 22.04C23.7901 22.67 23.3901 23.58 23.3901 24.37V28.85L22.5201 28.33C22.4901 28.32 22.4601 28.29 22.4301 28.25C22.3501 28.15 22.3101 27.97 22.3101 27.77V23.25C22.2901 22.47 22.8601 21.48 23.5301 21.1L23.5101 21.09ZM44.3201 62.75C44.3201 62.75 44.2201 62.77 44.1701 62.79L18.7901 77.41C18.1301 77.79 17.5101 77.86 17.1001 77.6C17.0901 77.6 17.0801 77.59 17.0601 77.58C17.0501 77.58 17.0401 77.57 17.0201 77.55C17.0101 77.55 16.9601 77.51 16.9501 77.49L16.9201 77.47H16.9101C16.9101 77.47 16.8901 77.44 16.8701 77.43L16.8401 77.39C16.7701 77.31 16.7101 77.2 16.6501 77.08C16.6301 77.02 16.6101 76.98 16.5901 76.91C16.5701 76.84 16.5501 76.76 16.5201 76.66C16.5101 76.57 16.5001 76.48 16.4901 76.4C16.4801 76.3 16.4801 76.21 16.4801 76.11L16.3501 32.93C16.3501 32.77 16.3601 32.62 16.3701 32.45C16.5201 31.31 17.1401 30 18.0301 29.05C18.1101 28.96 18.2001 28.88 18.2901 28.79C18.5301 28.57 18.7901 28.36 19.0701 28.2L21.4801 26.81V27.75C21.4801 28.16 21.6001 28.51 21.8201 28.76C21.8301 28.77 21.8301 28.78 21.8401 28.79L21.8701 28.82C21.9401 28.89 22.0001 28.95 22.0901 29.01L24.0101 30.13C24.1001 30.17 24.2001 30.22 24.3001 30.24C24.3301 30.24 24.3801 30.24 24.4201 30.25C24.4801 30.26 24.5201 30.27 24.5901 30.27H24.7101C24.8201 30.26 24.9301 30.24 25.0501 30.2H25.0601C25.1901 30.16 25.3201 30.1 25.4501 30.02L43.5501 19.59C43.5501 19.59 43.5801 19.57 43.6101 19.56C44.4401 19.04 45.1001 17.97 45.1901 16.98C45.1901 16.9 45.2001 16.82 45.2001 16.74V13.12L48.5701 11.18C49.0201 10.92 49.4401 10.8 49.8301 10.84C49.8501 10.84 49.8901 10.84 49.9101 10.85C49.9301 10.85 49.9501 10.86 49.9801 10.86C50.0001 10.87 50.0401 10.88 50.0801 10.89C50.1101 10.9 50.1501 10.91 50.1801 10.93C50.1801 10.93 50.2501 10.96 50.2601 10.96C50.6601 11.2 50.9101 11.77 50.9101 12.5L51.0101 50.27C47.8301 53.69 45.3601 58.26 44.3401 62.72L44.3201 62.75ZM60.6501 76.22C57.7301 77.91 54.9801 78.24 52.9101 77.13C52.8901 77.12 52.8501 77.12 52.8301 77.11C52.8101 77.09 52.7901 77.05 52.7501 77.04H52.7401C50.6901 75.84 49.5501 73.31 49.5501 69.91C49.5301 62.64 54.6601 53.74 60.9901 50.09C63.2301 48.8 65.3601 48.31 67.1601 48.63H67.1701C67.5401 48.7 67.9001 48.81 68.2301 48.94C68.2501 48.95 68.2601 48.95 68.2901 48.96C68.4501 49.03 68.5901 49.09 68.7401 49.17C68.7401 49.17 68.7501 49.18 68.7601 49.18C70.8601 50.33 72.0801 52.9 72.0901 56.4C72.1101 63.67 66.9801 72.56 60.6501 76.21V76.22Z" fill="black"/>
<path d="M70.6201 57.4899C70.5101 57.2899 70.2501 57.2199 70.0601 57.3299L68.9201 57.9899C68.7601 55.8199 67.9101 54.1799 66.4801 53.3499C65.0301 52.5199 63.1701 52.6099 61.2001 53.5899V52.2899C61.2001 52.0699 61.0101 51.8899 60.8001 51.8899C60.5801 51.8899 60.4001 52.0799 60.4001 52.2899V54.0399C56.1901 56.5999 52.8001 62.4699 52.7101 67.3599L51.1901 68.2499C51.0001 68.3599 50.9301 68.6199 51.0401 68.8099C51.1201 68.9399 51.2501 69.0099 51.4001 69.0099C51.4701 69.0099 51.5501 68.9999 51.6001 68.9499L52.7401 68.2899C52.9001 70.4599 53.7501 72.0999 55.1801 72.9199C55.8401 73.2999 56.5901 73.4899 57.4001 73.4899C58.3501 73.4899 59.3801 73.2199 60.4401 72.7099V73.9999C60.4401 74.2199 60.6301 74.3999 60.8401 74.3999C61.0601 74.3999 61.2401 74.2099 61.2401 73.9999V72.2599C65.4601 69.6999 68.8601 63.8299 68.9501 58.9199L70.4701 58.0499C70.6601 57.9399 70.7301 57.6899 70.6201 57.4899ZM60.3801 54.9999V59.7399C58.8901 60.7399 57.7501 62.7199 57.6501 64.4999L53.5301 66.8899C53.8201 62.5099 56.7401 57.4699 60.3901 54.9999H60.3801ZM60.4201 71.7899C58.5701 72.7999 56.8501 72.9699 55.5701 72.2199C54.2901 71.4899 53.5801 69.9299 53.5201 67.8399L57.7001 65.4299C57.8301 66.0999 58.1601 66.6199 58.6601 66.9099C58.9401 67.0699 59.2501 67.1499 59.5901 67.1499C59.8601 67.1499 60.1401 67.0899 60.4201 66.9899V71.7999V71.7899ZM61.2401 71.2999V66.5799C62.7601 65.5899 63.9201 63.5799 64.0201 61.7799L68.1201 59.4199C67.8201 63.7899 64.9001 68.8399 61.2401 71.2999ZM63.9701 60.8499C63.8401 60.1799 63.5101 59.6599 63.0101 59.3799C62.4901 59.0899 61.8701 59.0699 61.2101 59.3099V54.4899C62.3001 53.8999 63.3401 53.5899 64.2701 53.5899C64.9301 53.5899 65.5501 53.7499 66.0901 54.0499C67.3701 54.7899 68.0801 56.3499 68.1401 58.4399L63.9801 60.8399L63.9701 60.8499Z" fill="black"/>
</g>
<defs>
<clipPath id="clip0_1_9556">
<rect width="60.9" height="70.59" fill="white" transform="translate(12 8)"/>
</clipPath>
</defs>
</svg>
