<svg width="85" height="86" viewBox="0 0 85 86" fill="none" xmlns="http://www.w3.org/2000/svg">
<g clip-path="url(#clip0_1_9651)">
<path d="M79.136 29.3169L65.5351 21.5583C65.1974 21.3374 64.772 21.257 64.279 21.3642L53.305 23.7741L43.9113 18.3384C43.7425 18.1978 43.5534 18.0907 43.3441 18.0103C42.608 17.7292 41.6693 17.8564 40.6833 18.4254L31.5057 23.6804C30.2158 24.4167 29.0138 25.856 28.3182 27.4894C25.6777 33.6682 24.2798 39.9072 24.2798 45.4634V66.2222C24.2798 67.1996 24.658 67.8422 25.2455 68.11L38.8937 75.9088L45.289 69.73L53.6697 52.6798L63.4348 47.0901C65.0151 46.1864 66.305 43.9706 66.305 42.1631V45.3764L70.0327 37.8052L75.415 36.2454L79.2373 29.6851C79.3116 29.5579 79.2643 29.3905 79.136 29.3102V29.3169Z" fill="#EE6519"/>
<path d="M42.527 18.7199C42.1083 18.7199 41.6221 18.8672 41.1088 19.1618L31.9312 24.4167C30.8102 25.0594 29.7297 26.3647 29.1016 27.8174C26.5017 33.9024 25.1308 40.0009 25.1308 45.4567V66.2155C25.1308 66.7912 25.2996 67.1996 25.59 67.3267L38.7452 74.8444L44.5732 69.2212L53.0012 52.0639L62.996 46.347C64.3196 45.5906 65.4339 43.676 65.4339 42.1631H66.9128L69.4047 37.0889L74.8208 35.5158L78.1772 29.7587L65.0827 22.288C64.8801 22.1608 64.691 22.1273 64.4479 22.1875L53.143 24.6711L43.3374 18.9877C43.2428 18.9074 43.1348 18.8538 43.0132 18.8003C42.8579 18.7467 42.6958 18.7132 42.5067 18.7132H42.527V18.7199ZM39.0221 76.9798L24.8066 68.8597C23.9489 68.4715 23.4087 67.5008 23.4087 66.2356V45.4768C23.4087 39.7934 24.8269 33.4606 27.5146 27.1681C28.2845 25.3539 29.6149 23.7808 31.0668 22.9507L40.2444 17.6957C41.4397 17.0129 42.6486 16.8455 43.6413 17.2271C43.9182 17.3342 44.168 17.4681 44.3909 17.6489L53.4469 22.8837L64.09 20.5475C64.7991 20.3868 65.4609 20.5006 66.0079 20.8621L79.5616 28.5939C79.8249 28.7412 80.014 28.9822 80.0951 29.2767C80.1761 29.5646 80.1356 29.8725 79.9803 30.1336L75.9824 36.9885L70.6338 38.5349L65.4406 49.0984V46.4943C64.9747 47.0432 64.4411 47.5185 63.8604 47.8398L54.3181 53.2956L45.8766 70.3458L39.0086 76.9731V76.9865L39.0221 76.9798Z" fill="black"/>
<path d="M79.2373 29.6248C79.3116 29.4976 79.2644 29.3303 79.136 29.25L65.5351 21.4913C65.1974 21.2704 64.772 21.1901 64.279 21.2972L53.3051 23.7071L43.9113 18.2714C43.7425 18.1308 43.5534 18.0237 43.3441 17.9434C42.608 17.6622 41.6693 17.7894 40.6833 18.3584L31.5057 23.6134C30.8101 24.0084 30.1618 24.6109 29.5811 25.3338L66.3725 45.1956L70.026 37.7583L75.4083 36.1986L79.2306 29.6382L79.2373 29.6248Z" fill="white"/>
<path d="M30.9519 25.0995L65.9943 44.0107L69.4249 37.0353L74.841 35.4622L78.1973 29.6985L65.1029 22.2277C64.9003 22.1005 64.7112 22.067 64.4613 22.1273L53.1565 24.6109L43.3508 18.9208C43.2563 18.8404 43.155 18.7869 43.0334 18.74C42.5269 18.5459 41.8448 18.6731 41.1088 19.0948L31.9311 24.3498C31.607 24.5372 31.2761 24.7916 30.9452 25.0995H30.9519ZM66.7507 46.3671L28.2642 25.5949L28.899 24.7983C29.5608 23.9682 30.3104 23.3055 31.0667 22.877L40.2443 17.6221C41.4397 16.9393 42.6417 16.7719 43.6412 17.1535C43.9113 17.2539 44.1612 17.3945 44.3908 17.5752L53.4469 22.8101L64.0899 20.4738C64.799 20.3199 65.4608 20.427 66.0146 20.7951L79.5682 28.5203C80.1152 28.8349 80.2976 29.5244 79.9869 30.06L75.989 36.9148L70.6405 38.4612L66.7574 46.3604L66.7507 46.3671Z" fill="black"/>
<path d="M71.5253 19.9851L66.3389 17.2673C61.7062 14.9912 55.6756 15.7276 49.3613 19.3492L47.6865 20.3065L49.314 22.1875L49.3681 22.1541L54.8652 25.0192L56.3914 22.8436L61.6184 21.3508L65.569 21.3909C65.6838 21.7189 65.7648 22.0871 65.7648 22.5156V23.995L71.0661 26.7597C71.1674 26.8133 71.2957 26.7597 71.3227 26.6392L72.1669 23.0243L71.5253 19.9784V19.9851Z" fill="#EE6519"/>
<path d="M66.6222 23.4862L70.6809 25.5949L71.2887 23.0109L70.7754 20.5408L65.9537 18.0103C61.6114 15.8749 55.8711 16.6113 49.8135 20.0722L49.0369 20.5207L49.7865 21.3909L54.615 23.908L55.8846 22.1072L61.5303 20.4939L66.2035 20.5408L66.4061 21.1098C66.5682 21.5717 66.6492 22.0269 66.6492 22.5089V23.4728H66.6357L66.6222 23.4862ZM71.1401 27.6366C70.9713 27.6366 70.8092 27.5965 70.6539 27.5162L64.9002 24.5171V22.5223C64.9002 22.4285 64.9002 22.3415 64.8799 22.2478L61.7329 22.221L56.9179 23.5933L55.1283 26.1371L49.3746 23.1381L49.1652 23.2586L48.652 22.7566L46.3491 20.0989L48.9221 18.6262C55.5065 14.8574 61.8207 14.1076 66.7168 16.5242L72.2814 19.4429L73.0445 23.0645L72.1531 26.8668C72.0721 27.1814 71.8627 27.4425 71.5723 27.5697C71.4373 27.63 71.2887 27.6634 71.1401 27.6634V27.6366Z" fill="black"/>
<path d="M54.8112 25.0594L54.8652 25.0259C60.5649 21.7658 66.0013 21.1031 70.1747 23.1515C70.8703 23.4929 71.262 24.3096 71.262 25.3941V26.7396L71.3498 26.8534L73.7202 26.3313V23.9883C73.7202 22.1273 73.0381 20.7282 71.8428 20.1391C67.2101 17.8631 61.1795 18.5994 54.8652 22.221L53.1904 23.1783L54.818 25.0594H54.8112Z" fill="black"/>
<path d="M64.9137 21.1299C66.9464 21.1299 68.8441 21.5449 70.5526 22.3817C71.5454 22.8704 72.1194 23.9615 72.1194 25.3807V25.7957L72.8487 25.6351V23.9749C72.8487 22.4486 72.3422 21.324 71.4508 20.8956C67.0815 18.7534 61.348 19.4831 55.2837 22.9507L54.5003 23.3992L54.9865 23.9682C58.4509 22.0871 61.8275 21.1232 64.9002 21.1232H64.9137V21.1299ZM70.9984 27.804L70.4041 27.0208V25.3941C70.4041 24.6577 70.1745 24.1088 69.7895 23.9214C65.8794 22.0068 60.7335 22.6561 55.2972 25.769L54.6759 26.1238L54.1559 25.6217L51.853 22.9641L54.426 21.4913C61.0036 17.7292 67.3179 16.9727 72.2207 19.3827C73.7131 20.1123 74.5708 21.7993 74.5708 23.995V27.0275L70.9916 27.8174L70.9984 27.804Z" fill="black"/>
<path d="M43.8508 18.3384C43.682 18.1978 43.4929 18.0907 43.2836 18.0103C42.5475 17.7292 41.6088 17.8564 40.6228 18.4254L31.4452 23.6804C30.1553 24.4167 28.9533 25.856 28.2577 27.4894C27.1502 30.08 26.279 32.6774 25.6172 35.2413L43.3646 45.1153L57.2222 25.9296L53.3796 23.7473L53.2648 23.7741L43.8711 18.3384H43.8508Z" fill="white"/>
<path d="M26.6166 34.8196L43.1079 43.9973L55.9525 26.2041L53.2242 24.651L52.8123 24.5104L43.297 18.9877C43.2025 18.9074 43.0944 18.8471 42.9796 18.8003C42.4731 18.6128 41.7978 18.74 41.0617 19.1551L31.8841 24.41C30.7631 25.0527 29.6826 26.358 29.0545 27.8107C28.0821 30.0867 27.2649 32.4364 26.6234 34.8129L26.6166 34.8196ZM43.6077 46.2399L24.6177 35.663L24.7865 35.0271C25.4753 32.3628 26.3803 29.7119 27.4675 27.1547C28.2374 25.3472 29.5678 23.7674 31.0197 22.9373L40.1973 17.6823C41.3926 16.9995 42.5947 16.8322 43.5942 17.2137C43.8711 17.3208 44.1209 17.4547 44.3438 17.6355L53.3998 22.877L53.7915 23.0109L58.458 25.6685L43.6009 46.2399H43.6077Z" fill="black"/>
<path d="M42.1419 35.3819C39.5014 41.5606 38.1035 47.7997 38.1035 53.3559V74.1147C38.1035 75.9288 39.3866 76.6585 40.9736 75.7548L77.2653 54.9826C78.8523 54.0722 80.1354 51.8698 80.1354 50.0556V31.2315C80.1354 29.7922 79.3183 28.9822 78.1095 29.25L65.5688 32.008C64.0493 32.3427 62.7392 31.9678 61.8613 30.9503L57.9849 26.4652C57.2151 25.5748 55.905 25.5146 54.5138 26.3179L45.3362 31.5729C44.0463 32.3092 42.8443 33.7485 42.1487 35.3819H42.1419Z" fill="black"/>
<path d="M42.939 35.7166C40.3391 41.8016 38.9682 47.9001 38.9682 53.3559V74.1147C38.9682 74.6569 39.1235 75.0653 39.3801 75.2126C39.6367 75.3598 40.0757 75.2862 40.5484 75.0117L76.8401 54.2395C78.1637 53.4831 79.278 51.5685 79.278 50.0556V31.2314C79.278 30.7294 79.1497 30.3478 78.9269 30.1738C78.785 30.0533 78.5689 30.0265 78.2988 30.0867L65.7581 32.8448C63.9145 33.2464 62.3005 32.7778 61.2065 31.5126L57.3301 27.0275C56.6345 26.2242 55.4257 26.7865 54.9462 27.0609L45.7686 32.3159C44.6476 32.9586 43.5671 34.2639 42.939 35.7166ZM39.6908 76.9999C39.2653 76.9999 38.8736 76.8995 38.5157 76.6987C37.7121 76.2368 37.2461 75.2996 37.2461 74.1147V53.3559C37.2461 47.6725 38.6643 41.3397 41.352 35.0472C42.1219 33.233 43.4523 31.6599 44.9042 30.8298L54.0818 25.5748C55.8444 24.564 57.5867 24.6979 58.6402 25.9095L62.5166 30.3947C63.3607 31.372 64.5425 31.3586 65.3867 31.1712L77.9274 28.4132C78.704 28.2391 79.4469 28.3931 80.0074 28.8416C80.6489 29.3504 81.0001 30.2005 81.0001 31.2314V50.0556C81.0001 52.171 79.5549 54.6613 77.6978 55.7256L41.4061 76.4978C40.8253 76.8326 40.2378 76.9999 39.6908 76.9999Z" fill="black"/>
<path d="M71.8358 51.12L46.1264 65.8339C45.262 66.3293 44.5664 65.8072 44.5664 64.6624V56.0871C44.5664 54.9491 45.262 53.6237 46.1264 53.135L71.8358 38.4211C72.7002 37.9257 73.3958 38.4478 73.3958 39.5925V48.1679C73.3958 49.3059 72.7002 50.6313 71.8358 51.12Z" fill="black"/>
<path d="M72.4505 38.8963C72.3762 38.8963 72.2749 38.9298 72.1669 38.9901L46.4574 53.704C45.8024 54.0789 45.2283 55.1968 45.2283 56.0938V64.6624C45.2283 65.1043 45.3634 65.3051 45.4377 65.3452C45.4985 65.3787 45.647 65.3453 45.7956 65.2649L71.505 50.551C72.1601 50.1761 72.7341 49.0582 72.7341 48.1612V39.5858C72.7341 39.144 72.5991 38.9432 72.5248 38.903C72.5045 38.8896 72.4843 38.883 72.4572 38.883L72.4505 38.8963ZM45.4985 66.6774C45.2418 66.6774 44.992 66.6172 44.7691 66.49C44.2153 66.1753 43.8979 65.5059 43.8979 64.6691V56.1005C43.8979 54.7349 44.7286 53.1818 45.7888 52.5794L71.4983 37.8654C72.0791 37.5307 72.6869 37.5039 73.1798 37.7784C73.7336 38.093 74.051 38.7625 74.051 39.5992V48.1745C74.051 49.5402 73.2204 51.0932 72.1601 51.6957L46.4507 66.4096C46.1333 66.5904 45.8091 66.6841 45.4917 66.6841L45.4985 66.6774Z" fill="#EE6519"/>
<path d="M46.1196 53.1216C45.2551 53.617 44.5596 54.9357 44.5596 56.0737V63.0826L68.6888 49.2724C69.5532 48.777 70.2487 47.4583 70.2487 46.3202V39.3114L46.1196 53.1216Z" fill="black"/>
<path d="M46.4507 53.6906C45.7956 54.0655 45.2216 55.1834 45.2216 56.0804V61.9446L68.3513 48.7101C69.0064 48.3352 69.5804 47.2173 69.5804 46.3202V40.4561L46.4507 53.6973V53.6906ZM43.8979 64.2139V56.0737C43.8979 54.7081 44.7286 53.1551 45.7888 52.5526L70.904 38.1801V46.3202C70.904 47.6859 70.0734 49.2389 69.0131 49.8414L43.8979 64.2139Z" fill="#EE6519"/>
<path d="M24.7063 41.519L23.8481 42.9989L37.6833 50.8818L38.5415 49.4019L24.7063 41.519Z" fill="black"/>
<path d="M62.4827 42.9999L48.0781 51.2472L48.7399 52.3852L63.1445 44.1379L62.4827 42.9999Z" fill="#EE6519"/>
<path d="M50.4417 19.5902V14.8507C50.4417 14.7569 50.3674 14.6967 50.2729 14.6967H33.7748C33.6802 14.6967 33.606 14.7837 33.606 14.8707V19.6103C33.66 21.3775 35.3888 23.1247 38.8262 24.0151C40.9129 24.5506 43.128 24.5506 45.2215 24.0151C48.6588 23.1381 50.3877 21.3842 50.4417 19.6103V19.5902Z" fill="#EE6519"/>
<path d="M34.4705 15.5536V19.5099C34.5245 21.0897 36.2736 22.4687 39.0492 23.185C41.0009 23.6871 43.0538 23.6871 45.0055 23.185C47.7811 22.4754 49.5302 21.0964 49.5774 19.5902V15.5603H34.4705V15.5536ZM42.0206 25.2669C40.8793 25.2669 39.7245 25.1263 38.6102 24.8385C35.0108 23.9147 32.816 21.9733 32.7417 19.637V14.8774C32.7417 14.3218 33.1942 13.8532 33.7547 13.8465H50.2663C50.8335 13.8465 51.2927 14.2884 51.2927 14.8574V19.6973C51.232 21.98 49.0304 23.9213 45.431 24.8452C44.3167 25.1263 43.1686 25.2736 42.0206 25.2736V25.2669Z" fill="black"/>
<path d="M50.4417 22.9909V18.2513C50.4417 18.1576 50.3674 18.0974 50.2729 18.0974H33.7748C33.6802 18.0974 33.606 18.1844 33.606 18.2714V23.0109C33.66 24.7782 35.3888 26.5254 38.8262 27.4157C40.9129 27.9513 43.128 27.9513 45.2215 27.4157C48.6588 26.5388 50.3877 24.7849 50.4417 23.0109V22.9909Z" fill="#EE6519"/>
<path d="M34.4774 18.9542V22.9105C34.5314 24.4971 36.2805 25.8761 39.056 26.5857C41.0009 27.0877 43.0674 27.0877 45.0123 26.5857C47.7879 25.8761 49.537 24.4971 49.5843 22.9842V18.9542H34.4774ZM42.0274 28.6743C40.8794 28.6743 39.7313 28.5337 38.6171 28.2458C35.0176 27.3287 32.8228 25.3807 32.7485 23.0444V18.2848C32.7485 17.7225 33.2078 17.2539 33.775 17.2539H50.2731C50.8404 17.2539 51.3063 17.6957 51.3063 18.258V23.0712C51.2388 25.374 49.044 27.322 45.4446 28.2391C44.3303 28.5203 43.1822 28.6676 42.0342 28.6676L42.0274 28.6743Z" fill="black"/>
<path d="M50.2729 14.6967H43.7695V24.2828C44.2558 24.2159 44.742 24.1289 45.2147 24.0084C48.6521 23.1314 50.3809 21.3775 50.4349 19.6036V14.844C50.4349 14.7503 50.3607 14.69 50.2661 14.69L50.2729 14.6967Z" fill="black"/>
<path d="M47.9838 11.2759C51.2726 13.157 51.2726 16.2096 47.9838 18.0907C44.695 19.9718 39.3667 19.9718 36.0779 18.0907C32.7891 16.2096 32.7891 13.157 36.0779 11.2759C39.3667 9.39487 44.695 9.39487 47.9838 11.2759Z" fill="white"/>
<path d="M42.0274 10.7136C40.0284 10.7136 38.0295 11.1488 36.5032 12.019C35.1931 12.7755 34.4638 13.7126 34.4638 14.6833C34.4638 15.654 35.1864 16.5979 36.5032 17.3476C39.5489 19.0948 44.5058 19.0881 47.5447 17.3476C48.8548 16.5912 49.5842 15.654 49.5842 14.6833C49.5842 13.7126 48.8616 12.7688 47.5447 12.0123C46.0252 11.1421 44.0263 10.7069 42.0206 10.7069L42.0274 10.7136ZM42.0274 20.3667C39.7245 20.3667 37.4352 19.858 35.6388 18.827C33.7749 17.7627 32.7417 16.2832 32.7417 14.6833C32.7417 13.0834 33.7749 11.604 35.6388 10.5396C39.218 8.49115 44.8232 8.49115 48.4091 10.5396C50.273 11.604 51.3063 13.0834 51.3063 14.6833C51.3063 16.2832 50.273 17.7627 48.4091 18.827C46.6195 19.8513 44.3234 20.3667 42.0274 20.3667Z" fill="black"/>
<path d="M36.868 18.1108H35.5376V22.9574H36.868V18.1108Z" fill="black"/>
<path d="M39.515 19.0948H38.1846V23.9414H39.515V19.0948Z" fill="black"/>
<path d="M42.2908 19.55H40.9604V24.3966H42.2908V19.55Z" fill="black"/>
<path d="M9.45665 64.5888L5.26966 61.9914C4.85096 61.7304 4.72941 61.1814 5.00629 60.7798C7.28887 57.4327 17.0608 44.2584 30.2362 42.7522C32.4378 42.5045 34.1058 44.0375 33.9438 46.2265V46.3069C33.8222 47.8934 32.5864 49.1519 30.9994 49.326C20.8763 50.4573 12.6239 61.4693 10.625 64.3545C10.3616 64.7361 9.84158 64.8432 9.44314 64.5955L9.45665 64.5888Z" fill="#EE6519"/>
<path d="M30.7087 43.5756C30.5871 43.5756 30.4656 43.5756 30.3372 43.5957C17.3711 45.0818 7.5587 58.564 5.72183 61.2551L9.91557 63.8658H9.92907C12.2319 60.5455 20.5316 49.6272 30.9113 48.4691C32.0863 48.3419 32.998 47.4047 33.079 46.2399C33.1398 45.3697 32.9035 44.6735 32.397 44.2049C31.9648 43.7898 31.3705 43.5756 30.7019 43.5756H30.7087ZM9.92232 65.5795C9.60492 65.5795 9.28752 65.4925 9.00388 65.3118L4.8169 62.7144C4.41846 62.4734 4.13483 62.0651 4.04028 61.6099C3.94574 61.148 4.04028 60.6861 4.2969 60.2978C6.97792 56.3683 16.7701 43.4283 30.1414 41.902C31.4853 41.7414 32.7076 42.1297 33.599 42.9731C34.477 43.8099 34.9024 44.9814 34.8146 46.2868C34.666 48.3486 33.1061 49.9485 31.1139 50.1694C21.2069 51.2673 12.9207 62.5805 11.3608 64.8365C11.0298 65.3185 10.4828 65.5795 9.93583 65.5795H9.92232Z" fill="black"/>
<path d="M8.89609 62.0249L7.34961 63.2031L9.33505 64.4348C9.72674 64.6758 10.2535 64.5754 10.5169 64.1938C12.5158 61.3153 20.7615 50.2899 30.8913 49.1653C32.4715 48.9912 33.7074 47.7394 33.8289 46.1462V46.0659C17.6753 46.2868 8.9096 62.0182 8.9096 62.0182L8.89609 62.0249Z" fill="black"/>
</g>
<defs>
<clipPath id="clip0_1_9651">
<rect width="77" height="68" fill="white" transform="translate(4 8.99991)"/>
</clipPath>
</defs>
</svg>
