<svg width="30" height="31" viewBox="0 0 30 31" fill="none" xmlns="http://www.w3.org/2000/svg">
<path d="M18.3432 6.85165C19.6525 7.10661 20.8558 7.74572 21.7991 8.68718C22.7423 9.62864 23.3827 10.8296 23.6381 12.1364M18.3432 1.5C21.0634 1.80161 23.6 3.01743 25.5365 4.94781C27.4731 6.8782 28.6944 9.40842 29 12.123M27.6595 22.7996V26.8133C27.661 27.1859 27.5846 27.5547 27.435 27.8961C27.2854 28.2376 27.0661 28.544 26.791 28.7959C26.5159 29.0478 26.1911 29.2396 25.8375 29.359C25.4838 29.4783 25.1091 29.5227 24.7373 29.4891C20.6124 29.0418 16.6502 27.635 13.169 25.3817C9.93017 23.3276 7.18422 20.5869 5.12614 17.3543C2.86071 13.8639 1.45088 9.89004 1.01088 5.75456C0.977382 5.38459 1.02144 5.0117 1.14024 4.65965C1.25904 4.3076 1.44998 3.98409 1.70091 3.70973C1.95184 3.43536 2.25726 3.21615 2.59772 3.06606C2.93818 2.91596 3.30623 2.83826 3.67843 2.83791H7.69985C8.35039 2.83152 8.98107 3.06145 9.47432 3.48484C9.96757 3.90823 10.2898 4.49618 10.3808 5.13912C10.5505 6.42361 10.8653 7.68481 11.3191 8.89866C11.4995 9.37753 11.5385 9.89797 11.4316 10.3983C11.3247 10.8986 11.0763 11.3579 10.7159 11.7217L9.01352 13.4208C10.9218 16.7703 13.7004 19.5437 17.0564 21.4483L18.7588 19.7491C19.1232 19.3894 19.5834 19.1415 20.0847 19.0348C20.586 18.9281 21.1074 18.9671 21.5872 19.1471C22.8033 19.6 24.067 19.9142 25.3539 20.0836C26.0051 20.1753 26.5997 20.5027 27.0249 21.0034C27.45 21.5042 27.6758 22.1434 27.6595 22.7996Z" stroke="#F5F5F5" stroke-width="2" stroke-linecap="round" stroke-linejoin="round"/>
</svg>
